<?xml version="1.0" encoding="utf-8"?>
<!DOCTYPE svg PUBLIC "-//W3C//DTD SVG 20010904//EN" "http://www.w3.org/TR/2001/REC-SVG-20010904/DTD/svg10.dtd">
<svg version="1.0" xmlns="http://www.w3.org/2000/svg" width="1200px" height="628px" viewBox="0 0 1200 628" preserveAspectRatio="xMidYMid meet">
 <g fill="#000000">
  <path d="M0.2 543.4 l0.3 -84.6 95.5 -55.1 95.5 -55.2 10.5 0 10.5 0 28.5 16.4 c15.7 8.9 30 17.2 31.8 18.3 l3.2 2 0 -16.5 0 -16.4 -17.7 -10.4 c-9.8 -5.7 -25.9 -14.9 -35.7 -20.6 l-17.9 -10.3 -2.9 0 -2.9 0 -98 56.5 -97.9 56.5 -1.5 0 -1.5 0 0 -8.5 0 -8.5 1.5 0 c0.8 0 2.4 0.5 3.4 1.1 l1.8 1.2 13.6 -7.8 c7.6 -4.2 13.7 -8 13.7 -8.4 0 -0.3 -1.4 -1.4 -3.1 -2.3 l-3.1 -1.8 -2.9 0 -3 0 -10.9 -6.2 -10.9 -6.3 -0.1 -188.2 0 -188.3 175.5 0 175.5 0 0 16.3 0 16.2 1.8 3.5 1.9 3.5 4.8 3.3 4.8 3.2 5.6 1.7 5.6 1.7 7.5 0 7.5 0 5.5 -1.7 5.5 -1.6 4.8 -3 4.7 -3.1 2 -3.2 2 -3.3 0 -16.7 0 -16.8 157 0 157 0 0 16.6 0 16.6 1.7 3.5 1.6 3.5 4 2.9 3.9 2.8 5.7 2.2 5.6 2.2 9.5 0.1 9.5 0 5.9 -2.2 5.8 -2.1 3.5 -2.7 3.5 -2.6 1.9 -3.2 1.9 -3.1 0 -17.2 0 -17.3 61.5 0 61.5 0 0 27.9 0 27.9 1.6 0.6 1.7 0.6 1.3 -1.1 1.4 -1.1 0 -27.4 0 -27.4 139 0 139 0 -0.2 23.2 -0.3 23.1 -24.9 14.4 c-13.7 7.8 -25.1 14.5 -25.4 14.7 -0.2 0.3 -0.2 0.9 -0.1 1.4 l0.4 0.9 23 -13.3 23 -13.3 2.3 -0.1 2.2 0 -0.2 23.6 -0.3 23.6 -25.2 14.6 -25.3 14.6 0 1.2 0 1.3 23.3 -13.4 23.4 -13.5 2.1 0 2.2 0 0 209.8 0 209.9 -1.7 1.5 c-1 0.8 -24.2 14.4 -51.5 30.1 l-49.7 28.7 -2.5 0 c-1.4 0 -3.6 -0.5 -4.9 -1.1 l-2.4 -1.1 -2.2 1.1 c-2.9 1.6 -2.7 2.3 1.7 4.7 l3.7 2.2 52 -30.1 52 -30 2.8 -0.5 2.8 -0.4 -0.3 5.3 -0.3 5.4 -48.7 28 c-26.8 15.4 -48.8 28.2 -48.8 28.5 0 0.3 1.8 1.5 4 2.8 l4 2.3 42.3 -24.6 42.4 -24.5 2.6 0 2.7 0 0 4.8 0 4.7 -39.6 22.9 -39.5 22.9 3.8 2.3 c2.1 1.3 4.2 2.4 4.6 2.4 0.5 0 15.6 -8.6 33.8 -19 l32.9 -19 2 0 2.1 0 -0.3 5.3 -0.3 5.2 -29.6 17 -29.6 17.1 4.6 2.5 4.6 2.6 23 -13.4 22.9 -13.3 2.3 0 2.3 0 0 4.9 0 4.9 -19.1 11.1 -19.2 11.1 -16 0 -16 0 -5.2 -5.5 -5.3 -5.5 -2.1 0 -2 0 -1.5 2.2 -1.6 2.2 0 3.3 0 3.3 -4.5 0 -4.5 0 0 -4.2 0 -4.3 -2.6 -5.5 -2.5 -5.5 -3.2 -3.3 c-1.8 -1.9 -4.4 -4 -5.8 -4.7 l-2.5 -1.4 -1.1 0.7 c-0.5 0.4 -1.5 1.7 -2.1 2.8 l-1.1 2.1 0.8 3 c1.1 3.9 3.8 9.1 6.7 13 l2.4 3.2 0 2 0 2.1 -84.5 0 -84.5 0 0 -44.4 0 -44.4 -2.5 -1.6 c-1.3 -0.9 -2.7 -1.6 -3 -1.6 l-0.5 0 0 46 0 46 -50 0 -50 0 0 -1.4 c0 -2.4 1.9 -3.7 20.9 -14.6 l18.1 -10.4 0 -16.4 0 -16.3 -2.7 1.6 c-1.6 0.9 -17 9.8 -34.3 19.8 l-31.5 18.2 -0.3 9.8 -0.3 9.7 -4.4 0 -4.4 0 -0.3 -9.7 -0.3 -9.7 -11.5 -6.6 c-6.3 -3.6 -21.7 -12.5 -34.2 -19.8 l-22.8 -13.1 0 16.3 0 16.3 18.7 10.8 c18.6 10.7 20.3 11.8 20.3 14.3 l0 1.2 -138 0 -138 0 0 -15.5 0 -15.4 -6.8 2.7 -6.7 2.7 -18 0 -18 0 -5.5 -2.1 c-3 -1.2 -6.3 -2.4 -7.2 -2.9 l-1.8 -0.7 0 15.6 0 15.6 -95 0 -95 0 0 -34 0 -34 -0.7 0 c-0.5 0 -2.1 0.9 -3.8 2 l-3 2 -4.5 0 -4.5 0 -3 -2 c-1.6 -1.1 -3.3 -2 -3.7 -2 l-0.8 0 0 34 0 34 -66.5 0 -66.5 0 0 -14 0 -14 -3 0 -3 0 0 14 0 14 -27.5 0 -27.5 0 0.2 -84.6z m1071.2 65.4 l1.6 -2.2 0 -2.4 0 -2.3 -2.5 -5.3 -2.5 -5.4 -5 -4.6 -4.9 -4.6 -1.5 0 -1.5 0 -1.5 2.9 -1.5 2.9 0.8 2.9 c2 7.1 6.4 13.5 11.9 17.5 4.5 3.3 4.7 3.3 6.6 0.6z m-277 -16.9 l0.9 -0.8 -2.6 -1.2 -2.6 -1.2 -0.3 -5 -0.3 -4.9 -18.2 -10.9 -18.3 -10.8 0 5.9 0 5.8 -3.4 2.1 -3.3 2.1 -2.9 0 -2.9 0 -8.5 -5.4 -8.5 -5.3 -0.3 -3.2 -0.3 -3.2 -0.7 0.3 c-0.4 0.2 -1.9 1 -3.5 1.8 l-2.8 1.3 0.3 0.9 c0.2 0.4 15.1 9.3 33.2 19.8 l33 18.9 5.5 -3.1 c3.1 -1.7 6 -3.5 6.5 -3.9z m248 -2.1 l0.9 -2.7 -1.1 -4 -1.2 -3.9 -3.3 -4.8 -3.2 -4.8 -3.4 -2.3 c-1.9 -1.3 -4 -2.3 -4.7 -2.3 l-1.3 0 -1.5 2.8 -1.4 2.7 1.2 4 c0.7 2.2 2.4 5.9 3.9 8.1 l2.6 4.1 3.8 3.2 3.8 3.2 2 -0.3 2 -0.3 0.9 -2.7z m-989.7 -9.2 l-0.5 -1.2 -11.6 -6.7 c-6.3 -3.7 -11.8 -6.7 -12.1 -6.7 -0.3 0 -0.5 1.5 -0.5 3.4 l0 3.4 12.3 7 12.2 6.9 0.3 -2.4 c0.2 -1.4 0.1 -3 -0.1 -3.7z m22.6 -1 l11.7 -6.8 0 -3.5 0 -3.5 -5.7 3.2 c-3.2 1.8 -8.8 5 -12.5 7.2 l-6.8 3.9 0 3.5 0 3.5 0.8 -0.4 c0.4 -0.2 6 -3.4 12.5 -7.1z m384.2 -4 l7.5 -3.7 2.5 -3.7 2.5 -3.7 0 -5.7 0 -5.8 -28.2 0 -28.3 0 -3.7 -0.9 -3.8 -0.9 0 5.7 0 5.6 1.8 3.5 1.7 3.4 4.3 3.3 4.3 3.3 6.2 2 6.2 2 9.7 -0.3 9.8 -0.4 7.5 -3.7z m353.5 -3.8 c4.9 -2.8 8.8 -5.4 8.6 -5.6 -0.4 -0.3 -12.6 6.4 -17.1 9.5 -4.7 3.2 0.4 0.9 8.5 -3.9z m261.8 3.8 l2.3 -1.2 -4.4 -2.4 -4.4 -2.4 -3.2 1.4 -3.2 1.3 3.8 2.3 c4.3 2.7 5.9 2.8 9.1 1z m-62.8 -1.5 c0.5 -1.1 1 -3.2 1 -4.6 l0 -2.7 -2.6 -5.2 -2.5 -5.1 -3.2 -3.3 c-1.8 -1.9 -4.4 -4 -5.8 -4.7 l-2.7 -1.4 -1.6 1.8 -1.6 1.8 0 3.4 0 3.4 3.4 6 3.3 6 4.2 3.3 4.3 3.2 1.3 0 1.4 0 1.1 -1.9z m-163 -14.1 c-0.1 -0.6 -48.2 -28.2 -48.5 -27.8 -0.1 0.2 -0.5 2.6 -0.7 5.4 l-0.5 5.1 7.7 4.5 7.7 4.5 2.4 -1.3 2.4 -1.3 2.8 -0.1 2.8 0 2.9 1.5 3 1.6 0 9.4 0 9.4 9 -5.2 c5 -2.8 9 -5.4 9 -5.7z m-779.1 3.1 l11.2 -6.4 -4.1 -2.4 -4.1 -2.4 -6.3 3.5 -6.4 3.6 -2.7 0 -2.7 0 -5.9 -3.5 -6 -3.5 -4.1 2.1 -4 2.1 0.8 0.8 c1.5 1.4 21.9 13 22.4 12.8 0.4 -0.2 5.7 -3.2 11.9 -6.7z m1020.1 -2.3 l0 -8.3 -95.8 -55.2 c-52.7 -30.4 -96.2 -55.3 -96.6 -55.3 l-0.7 0 0.3 8.2 0.3 8.2 95.5 55.2 c52.5 30.4 95.8 55.3 96.3 55.3 l0.7 0.1 0 -8.2z m55.8 -18.3 l45.1 -26 0.1 -8.2 0 -8.3 -0.5 0 c-0.3 0 -21 11.8 -46 26.2 l-45.5 26.2 0 8.4 0 8.4 0.8 -0.4 c0.5 -0.1 21.2 -12 46 -26.3z m-355.8 23.1 c0 -0.2 -1.9 -1.5 -4.2 -2.9 -2.4 -1.4 -10.1 -6 -17.3 -10.2 -7.1 -4.2 -12.4 -7.1 -11.7 -6.3 1.4 1.4 31.2 19.6 32.5 19.7 0.4 0.1 0.7 -0.1 0.7 -0.3z m264.1 -0.6 c2.7 -1.5 2.4 -2.4 -1.8 -4.7 l-3.8 -2.1 -2.9 1.5 -2.8 1.5 3.8 2.4 c4.5 2.7 4.9 2.8 7.5 1.4z m-247.8 -5.8 c-1.5 -0.8 -12.6 -7.3 -24.6 -14.4 l-21.9 -13 -0.9 0.9 -1 1 21.8 12.8 c11.9 7.1 22.3 13.7 23.1 14.6 l1.5 1.7 2.4 -1.1 2.4 -1.1 -2.8 -1.4z m-68.8 -1.8 c-2.6 -2 -5.5 -3.6 -5.5 -3 0 0.5 6.3 4.6 7 4.6 0.3 -0.1 -0.4 -0.8 -1.5 -1.6z m245.5 -4.6 l0 -2.9 -1.5 -3.7 c-0.9 -2 -2.7 -5.4 -4.1 -7.4 l-2.6 -3.6 -3.9 -2.8 -3.9 -2.7 -2 1.8 -2 1.8 0 3.1 0 3.1 1.9 4.1 1.8 4 3.4 3.9 c1.9 2.1 4.7 4.6 6.4 5.6 l2.9 1.8 1.8 -1.6 1.8 -1.6 0 -2.9z m52 0.4 l2.2 -1.7 -4.2 -2.4 -4.2 -2.3 -2.4 1.1 c-3.2 1.4 -3 2.2 1.4 4.8 4.5 2.7 4.5 2.7 7.2 0.5z m-833.2 -18.3 l-0.3 -16.2 -11.6 -6.7 -11.6 -6.8 -12 1.1 -12 1 -1.7 -0.6 -1.6 -0.6 0 -8.3 0 -8.3 -8.7 -5 c-4.7 -2.7 -9 -5.2 -9.5 -5.3 l-0.9 -0.4 0.3 16.3 0.3 16.3 34 19.7 c18.7 10.9 34.3 19.8 34.8 19.8 l0.7 0.1 -0.2 -16.1z m44.1 -3.9 l34 -19.5 0.1 -16.3 0 -16.4 -6.2 3.5 c-3.5 2 -19.1 10.9 -34.8 20 l-28.5 16.5 -0.3 16.2 -0.3 16.2 1 -0.4 c0.6 -0.1 16.3 -9.1 35 -19.8z m-192.9 7.2 l0 -6.7 -6.2 -3.5 c-3.5 -1.9 -6.6 -3.6 -7 -3.8 l-0.8 -0.4 0 6.9 0.1 6.8 6.2 3.6 c3.4 2.1 6.5 3.7 7 3.8 l0.7 0.1 0 -6.8z m16.5 3.1 l6.5 -3.7 0 -6.8 0 -6.9 -3.2 1.7 c-1.8 0.9 -5 2.8 -7 4.1 l-3.8 2.3 0 6.5 c0 3.6 0.2 6.5 0.5 6.5 0.3 0 3.5 -1.7 7 -3.7z m598.2 0.2 l4.3 -2.6 2.1 -4.1 2.1 -4.1 -0.5 -3.4 -0.6 -3.3 -2.1 -3 -2.2 -3 -3.8 -2 -3.9 -2 -5.6 0 -5.5 0 0 3.6 0 3.5 -4.7 -0.3 -4.8 -0.3 -2 -3.2 -2 -3.2 -48.2 -0.1 c-26.6 0 -48.3 0.2 -48.3 0.4 0 0.2 2.2 3.1 5 6.3 l5 5.8 0 4.3 0 4.2 -3.4 0 -3.3 0 -4.4 -4.7 c-2.4 -2.7 -14.1 -15.9 -25.9 -29.5 l-21.5 -24.8 -5.5 5.5 -5.6 5.5 -3.4 -0.1 -3.5 0 -13 -3.7 -13 -3.7 -3.2 -12 -3.2 -12 -0.1 -4.7 0 -4.8 -3.4 0 -3.4 0 -0.7 4.7 c-0.4 2.7 -1.5 7 -2.5 9.6 l-1.9 4.8 -4.2 5.5 -4.1 5.4 -4.4 0 -4.4 0 0 -3.6 0 -3.5 3.9 -4.7 4 -4.7 2.1 -4.8 2.1 -4.7 0.6 -5.3 0.6 -5.2 1 -1.2 0.9 -1.3 11.7 0 11.7 0 4.4 -4.5 4.4 -4.5 4.5 0 4.5 0 11.9 3.2 11.9 3.1 0.5 1.4 0.5 1.3 2.4 0 2.4 0 0 -0.9 c0 -0.4 -1 -2.3 -2.3 -4.2 l-2.2 -3.4 -3.4 -2.2 -3.4 -2.3 -70.4 0 -70.4 0 -3.3 1.4 c-1.8 0.7 -5 2.9 -7.1 4.7 l-3.8 3.4 -2.3 5 -2.4 5 0 2.5 0 2.5 1.9 4.1 1.9 4.1 32.7 37.9 c18 20.8 34.1 39.2 35.9 40.7 3.3 3 9.4 6.5 13.6 7.8 l2.5 0.7 122.9 0.1 122.9 0.1 4.4 -2.5z m348.1 0.2 l2.3 -1.3 -4.2 -2.3 -4.1 -2.3 -2.4 1.1 c-3.1 1.4 -3 2.2 0.4 4.3 3.3 2 5 2.1 8 0.5z m-62.8 -6.4 l0 -3.4 -2.1 -4.2 c-1.2 -2.3 -3.2 -5.6 -4.5 -7.4 l-2.4 -3.1 -3.5 -2.2 -3.6 -2.2 -1.9 1.7 -2 1.8 0 2.9 0 2.9 2.9 5.7 2.9 5.7 3.4 3.1 c1.8 1.7 4.2 3.6 5.3 4.2 l2 1.1 1.7 -1.6 1.8 -1.6 0 -3.4z m197.7 -32.5 l16.3 -9.3 0 -6.7 0 -6.8 -0.7 0.1 c-0.5 0 -16.5 9.1 -35.8 20.3 l-35 20.2 -0.3 7.2 -0.3 7.1 19.8 -11.4 c10.9 -6.3 27.1 -15.6 36 -20.7z m-364.7 29 l0 -1.3 -3.9 -1.6 -3.9 -1.7 -1.2 0.8 -1.3 0.8 2.4 1.2 c1.2 0.7 3.4 1.6 4.8 2.1 1.4 0.4 2.7 0.8 2.9 0.8 0.1 0.1 0.2 -0.5 0.2 -1.1z m210.8 -1.1 l2.3 -1.3 -4.8 -2.6 -4.8 -2.6 -2.9 1.5 -2.8 1.5 3.8 2.4 c4.4 2.7 6 2.9 9.2 1.1z m89.4 -8.9 l0.3 -8.3 7.7 -4.5 7.8 -4.5 0 -2.8 0 -2.8 -0.7 0.4 c-0.5 0.2 -5.6 3.2 -11.5 6.6 l-10.8 6.3 0 7.2 0 7.1 2.8 1.7 c1.5 1 3 1.8 3.4 1.8 l0.7 0 0.3 -8.2z m-164.2 0.7 l1.3 -1.6 -0.1 -3 -0.1 -3.1 -2.6 -5.3 -2.5 -5.3 -4.6 -4.2 -4.5 -4.1 -2.2 0.3 -2.2 0.3 -0.9 2.7 -0.9 2.7 1.1 3.8 1.2 3.9 3.1 4.7 3.2 4.8 3.6 2.5 c4.2 2.8 5.4 3 7.1 0.9z m-853 -7.5 c0 -0.3 -2.5 -2 -5.6 -3.8 l-5.6 -3.2 -6 3.4 -6.1 3.4 2.4 1.4 c1.3 0.8 4 2.4 5.9 3.6 l3.4 2.1 5.8 -3.2 c3.2 -1.8 5.8 -3.4 5.8 -3.7z m907.1 4.1 l2.3 -1.9 -4.2 -2.1 -4.2 -2.1 -2.5 1.6 -2.6 1.7 3.8 2.3 c4.6 2.8 4.5 2.8 7.4 0.5z m86.9 -10.1 l0 -8 3.8 -2.4 c2 -1.3 17.2 -10.2 33.7 -19.6 33.4 -19.2 31 -17.8 30.3 -18.6 l-0.6 -0.6 -35.4 20.4 -35.3 20.4 -0.3 6.8 -0.3 6.8 1.2 1.4 c0.6 0.8 1.5 1.4 2 1.4 l0.9 0 0 -8z m-106.2 -0.8 l2.3 -1.8 -4.1 -2.3 -4.2 -2.3 -2.4 1.3 c-1.3 0.7 -2.4 1.5 -2.4 1.8 0 0.6 7 5 8 5 0.3 0 1.5 -0.7 2.8 -1.7z m94.2 -6.6 l0 -8.4 2.3 -1.6 2.2 -1.7 -3.5 2 -3.5 2 -0.3 6.7 c-0.3 7.1 0.1 9.4 1.8 9.4 l1 0 0 -8.4z m-811.7 -11.9 l32.7 -18.9 0 -0.8 c0 -0.8 -17 -11 -18.3 -11 -0.2 0 -0.8 1.7 -1.2 3.8 -0.3 2 -1.1 5.4 -1.7 7.5 l-1.1 3.7 -4.1 0 -4.1 0 -5.3 -3.5 -5.2 -3.6 0 -4.2 0 -4.2 -6 0.3 c-3.3 0.2 -6 0.5 -6 0.7 0 0.2 1.4 3.3 3 7 l3 6.7 0 10.7 0 10.6 -5.4 3.3 -5.4 3.2 -4.1 0 -4.1 0 -0.1 -1.2 0 -1.3 -0.9 2.3 -0.9 2.2 -3.8 0 -3.8 0 4.5 3 c2.5 1.6 4.8 2.8 5.1 2.7 0.3 -0.1 15.3 -8.7 33.2 -19z m652.8 15.7 l1.3 -1.6 -0.1 -3.2 -0.1 -3.3 -2.2 -4.4 c-1.3 -2.4 -3.3 -5.8 -4.6 -7.4 l-2.3 -3.1 -4 -2.2 -4 -2.3 -1.7 2.6 -1.6 2.5 0.6 3.2 c0.4 1.8 1.6 5.1 2.7 7.4 l2 4.2 4.9 4.6 4.9 4.6 1.4 0 1.5 0 1.3 -1.6z m-236.1 -1.5 c0 -0.7 -0.9 -2.7 -2.1 -4.5 l-2 -3.3 -3.5 -2.2 -3.5 -2.1 -6.5 -0.6 -6.4 -0.5 0 4.2 0 4.1 -3.8 0 -3.9 0 -2 -2.2 c-1.1 -1.3 -2.3 -3.1 -2.6 -4 l-0.6 -1.8 -48.6 0 -48.6 0 0.7 1.3 c0.4 0.6 3 3.8 5.7 7 l5 5.7 61.3 0 61.4 0 0 -1.1z m280.2 -10.6 c-4.3 -2.6 -4.9 -2.7 -8.1 -0.9 l-2.3 1.3 4.3 2.5 4.2 2.5 2.8 -1.6 2.8 -1.6 -3.7 -2.2z m-758.2 2.7 c7.4 -0.6 14.5 -1.3 15.8 -1.6 l2.2 -0.4 0 -2.5 0 -2.5 -2.2 0.4 c-1.3 0.3 -8.4 1 -15.8 1.6 -7.4 0.6 -14.5 1.3 -15.7 1.6 l-2.3 0.4 0 2.5 0 2.5 2.3 -0.4 c1.2 -0.3 8.3 -1 15.7 -1.6z m847.7 -11.2 l-0.4 -4.3 0 8 0 8 0.4 -3.7 c0.2 -2.1 0.2 -5.7 0 -8z m116.8 -3.8 l8 -4.6 0.3 -2.8 0.4 -2.8 -0.9 0.3 c-0.5 0.2 -7.1 3.9 -14.5 8.2 l-13.6 7.9 1.6 1.7 1.7 1.8 4.5 -2.5 c2.5 -1.4 8.1 -4.7 12.5 -7.2z m-280 6.1 l1.5 -2.9 -1.4 -4.5 -1.3 -4.4 -3.2 -4.7 -3.2 -4.7 -4.1 -2.6 -4 -2.7 -1.9 2.3 -1.9 2.3 0 2.2 0 2.1 2.4 5 c2.8 6 6.9 11.1 11.1 13.6 3.9 2.5 4.2 2.4 6 -1z m55.8 -1.6 l1.9 -1.3 -2.4 -1.5 c-1.2 -0.8 -3.2 -1.9 -4.3 -2.5 l-2 -1 -2.7 1.6 -2.7 1.6 3.7 2.3 c4.3 2.6 6 2.8 8.5 0.8z m93 -16.4 l1.2 -1.4 -2.7 1.7 -2.8 1.8 0 7.3 0 7.3 1.3 0.5 1.2 0.4 0.3 -8.1 0.3 -8 1.2 -1.5z m-843.3 9.8 l0 -4 1 -2 1.1 -1.9 -0.8 0 c-0.7 0 -2.6 4 -4.9 10.3 l-0.6 1.7 2.1 0 2.1 0 0 -4.1z m468.4 1.9 c-0.3 -1.3 -1.5 -3.5 -2.6 -5.1 l-2 -2.7 -3.8 -2 -3.9 -2 -5.6 0 -5.5 0 0 3.5 0 3.5 -4.2 0 -4.2 0 -2.3 -2.2 -2.3 -2.1 0 -1.4 0 -1.3 -49.1 0 -49.1 0 6.3 7 6.2 7 61.4 0 61.4 0 -0.7 -2.2z m370.1 -22 l7.5 -4.2 0 -1.3 c0 -0.7 -0.3 -1.3 -0.6 -1.3 -0.3 0 -4.8 2.5 -10 5.6 l-9.4 5.5 0 7.3 0 7.4 2.3 1.5 2.2 1.5 0.3 -8.9 0.3 -8.8 7.4 -4.3z m-848.5 10.2 l4.3 -10 4.1 0 4.1 0 5 3.3 5 3.3 0 3.9 0 4 7.1 0 7.1 0 -3.4 -7.8 -3.3 -7.9 0 -7.9 c0 -4.3 -0.2 -7.9 -0.4 -7.9 -0.2 0 -10.9 6.1 -23.7 13.5 l-23.4 13.5 0 1 0 1 6.5 3.9 c3.6 2.2 6.6 4 6.6 4 0.1 0.1 2.1 -4.4 4.4 -9.9z m323 -4.4 l-6.2 -1.8 -4.9 4.8 c-2.7 2.7 -4.9 5.1 -4.9 5.5 0 0.4 2.6 1.3 5.8 2.1 l5.7 1.5 5.3 -5.1 5.3 -5.1 -6.1 -1.9z m416.5 10.2 c3.4 -1.6 3.2 -2.4 -1.6 -4.8 l-4.1 -2.1 -2.5 1.6 -2.5 1.7 3.8 2.4 c4.7 2.8 3.8 2.6 6.9 1.2z m-690.3 -16.1 c-3.7 -8.7 -6.8 -15.4 -7 -14.9 -0.2 0.7 10.9 27.9 12.4 30.4 0.4 0.5 0.8 0.8 1 0.6 0.2 -0.3 -2.7 -7.5 -6.4 -16.1z m626.2 5.9 c-0.3 -1.7 -1.8 -5.3 -3.2 -8 l-2.6 -4.8 -4.5 -3.9 -4.4 -3.9 -1.3 0 -1.4 0 -1.6 2.5 -1.7 2.6 1.2 4.2 1.3 4.2 3.1 4.9 3.1 4.9 4 2.9 4.1 2.9 2.3 -2.7 2.3 -2.6 -0.7 -3.2z m-367.4 -10.4 c0 -0.8 -0.7 -3.9 -1.6 -6.9 l-1.6 -5.6 -5.1 5.1 -5 5.1 1.2 5.8 c0.7 3.2 1.6 6.2 1.8 6.6 l0.5 0.9 4.9 -4.8 4.9 -4.8 0 -1.4z m421.8 -1.2 l0.3 -5.3 -4.3 2.5 c-2.4 1.4 -6.9 4 -10 5.8 -3.2 1.7 -5.8 3.5 -5.8 3.8 0 0.4 1.7 1.7 3.8 2.9 l3.7 2.1 6 -3.3 6 -3.3 0.3 -5.2z m-271.8 3 l-2 -4 -4.2 -2.7 -4.1 -2.8 -6.8 -0.3 -6.9 -0.4 0 4.1 0 4.1 -3.9 0 -3.9 0 -2.6 -3.1 c-1.4 -1.7 -2.6 -3.5 -2.6 -4 l0 -0.9 -40.5 0 -40.5 0 0 0.8 c0 0.7 2.5 9.4 3.5 12 l0.4 1.2 58.1 0 58 0 -2 -4z m349 -14 c0.8 -0.6 4.3 -2.6 7.8 -4.6 l6.2 -3.5 0 -2.4 c0 -1.4 -0.3 -2.5 -0.6 -2.5 -0.4 0 -5.5 2.8 -11.5 6.3 l-10.9 6.2 0 7.6 0 7.5 3.3 1.6 3.2 1.5 0.5 -8.4 0.5 -8.4 1.5 -0.9z m-476.4 7.2 l-1.7 -6.8 -6.6 -1.8 -6.5 -1.7 -0.6 0.5 -0.5 0.6 1.8 6.5 1.7 6.5 5.7 1.6 c3.1 0.8 6.1 1.7 6.6 1.8 1.8 0.5 1.8 -0.2 0.1 -7.2z m384 -4.9 l15.3 -8.8 0.3 -3.5 0.3 -3.5 9 -5.2 9 -5.2 0.3 -1.6 c0.2 -0.8 0.1 -1.5 -0.2 -1.5 -0.5 0 -57.3 32.6 -58.4 33.5 -0.5 0.5 6.3 4.3 7.7 4.4 l1.4 0.1 15.3 -8.7z m-641.6 2.1 l0 -2.6 -1.6 0.6 c-0.9 0.3 -2 0.6 -2.5 0.6 l-0.9 0 0 2 0 2 2.5 0 2.5 0 0 -2.6z m12.9 -3.1 c0.5 -2.1 1.2 -5 1.5 -6.5 l0.6 -2.8 -2 0 -2 0 0 2.8 c0 1.5 -0.3 4.4 -0.6 6.5 l-0.7 3.7 1.1 0 1.1 0 1 -3.7z m653.7 -35.9 c33 -19 61 -35.3 62.3 -36.1 l2.4 -1.6 -3.9 -2.3 -3.9 -2.4 -1.5 0.6 c-0.8 0.3 -29.3 16.5 -63.2 36.1 l-61.7 35.7 3.7 2.3 c2 1.2 4.2 2.3 4.8 2.3 0.7 0 28.1 -15.6 61 -34.6z m157.2 23.6 l11.2 -6.4 0 -1.3 c0 -0.7 -0.2 -1.3 -0.5 -1.3 -0.3 0 -6.8 3.6 -14.5 8.1 l-14 8.1 0 1.5 0 1.5 3.3 -1.9 c1.7 -1.1 8.3 -4.8 14.5 -8.3z m72.2 -32 l0 -40 -0.7 0 c-0.5 0 -2.6 1.2 -4.8 2.5 l-4 2.5 -3.5 0 -3.5 0 -4.2 -2.5 -4.3 -2.4 0 34 0 33.9 2 0 2 0 0 2.5 0 2.5 4.5 0 4.5 0 0 2.5 0 2.5 4 0 4 0 0 1 0 1 2 0 2 0 0 -40z m-109.2 12.5 l10.2 -6 0 -2.8 0 -2.9 -2.2 1.4 c-1.3 0.9 -8.1 4.8 -15.3 8.9 l-12.9 7.4 1.7 0.3 1.7 0.3 0 1.6 0 1.5 3.3 -1.9 c1.7 -1 7.8 -4.6 13.5 -7.8z m-266.5 -4.3 l5.8 -1.7 -5.3 -5.2 -5.3 -5.2 -6 1.6 c-3.3 0.9 -6.2 1.8 -6.4 2 -0.7 0.5 9.2 10.3 10.4 10.3 0.5 0 3.6 -0.8 6.8 -1.8z m15.7 -17 l1.2 -5.4 -4.8 -4.9 -4.8 -4.9 -0.5 0.6 c-0.3 0.3 -1.3 3.1 -2.2 6.2 l-1.7 5.7 5.1 5.2 5.1 5.3 0.7 -1.3 c0.3 -0.6 1.2 -3.6 1.9 -6.5z m-26.5 -3.6 l4 -1.2 1.7 -5.4 c0.9 -3 1.7 -6.3 1.7 -7.2 l0.1 -1.7 -6.6 1.9 c-3.7 1.1 -6.8 2.1 -7.1 2.3 -0.2 0.2 -1.2 3.4 -2.2 7.1 l-1.9 6.7 3.1 -0.7 c1.8 -0.4 5 -1.2 7.2 -1.8z m-676.8 -10.1 l10.3 -5.9 -9.3 -5.4 c-5 -3 -9.8 -5.7 -10.4 -5.9 l-1.3 -0.5 0 8.5 0 8.6 -6.5 3.6 c-3.6 2 -6.5 3.8 -6.5 4.1 0 0.2 1.2 1 2.8 1.8 l2.7 1.5 4 -2.3 c2.2 -1.2 8.6 -4.9 14.2 -8.1z m270.3 -36.2 l0 -16.3 -0.5 0 c-0.3 0 -11.6 6.4 -25 14.1 l-24.5 14.2 0 16.2 0 16.3 25 -14.1 25 -14.2 0 -16.2z m292.5 37.7 l4.9 -4.9 -1.5 -0.5 c-0.8 -0.2 -3.7 -1.1 -6.6 -1.9 l-5.1 -1.4 -5.2 5.2 -5.1 5.2 5.3 1.6 c2.9 0.8 6 1.6 6.8 1.6 l1.6 0.1 4.9 -5z m-604.5 -8.5 l0 -6.5 -3.7 -2.3 c-2.1 -1.3 -5.3 -3.2 -7 -4.1 l-3.3 -1.7 0 6.8 0 6.8 6.3 3.7 c3.4 2 6.5 3.7 7 3.7 l0.7 0.1 0 -6.5z m15.5 2.8 l6.5 -3.7 0 -6.8 0 -6.9 -3.2 1.7 c-1.8 0.9 -5 2.8 -7 4.1 l-3.8 2.3 0 6.5 c0 3.6 0.2 6.5 0.5 6.5 0.3 0 3.5 -1.7 7 -3.7z m883.3 -0.9 l2.2 -1.5 0 -24 0 -23.9 -3 0 -3 0 0 25.5 0 25.5 0.8 0 c0.4 0 1.8 -0.7 3 -1.6z m-316.5 -5.5 c-0.5 -0.3 -2 -0.9 -3.5 -1.3 l-2.8 -0.6 0 0.9 c0 0.5 0.5 2.2 1 3.7 l1.1 2.7 2.4 -2.3 2.5 -2.4 -0.7 -0.7z m-24.7 -6.7 c-0.2 -0.2 -3 -1 -6.1 -1.8 l-5.8 -1.5 -4.8 4.7 c-2.7 2.7 -4.9 5.1 -4.9 5.5 0 0.4 2.6 1.3 5.8 2.1 l5.7 1.5 5.2 -5 c2.9 -2.8 5.1 -5.3 4.9 -5.5z m65.3 0.4 l5.3 -5.3 -6.8 -1.7 -6.7 -1.7 -4.9 4.8 c-2.6 2.6 -4.8 5 -4.8 5.3 0 0.5 8.9 3.3 12 3.9 0.3 0.1 2.9 -2.3 5.9 -5.3z m-546.2 -3.3 c7.3 -4.2 13.3 -8 13.3 -8.4 0 -0.3 -1.3 -1.2 -2.8 -1.8 l-2.8 -1.2 -9.5 5.5 -9.4 5.6 -2.9 0 -2.9 0 -11.6 -6.7 c-6.4 -3.7 -11.9 -7.2 -12.3 -7.7 l-0.8 -1.1 0 -7.7 0 -7.8 -7.7 4.6 c-4.3 2.5 -7.9 4.7 -8.1 4.9 -0.2 0.2 2.3 1.8 5.4 3.7 l5.8 3.4 0.6 2.3 0.5 2.3 15 8.8 c8.3 4.8 15.4 8.8 15.9 8.9 0.5 0.1 6.9 -3.4 14.3 -7.6z m460.3 -9.3 c0 -0.9 -0.7 -4 -1.6 -7 l-1.6 -5.3 -4.9 4.9 -4.9 4.8 0 1.6 c0 0.9 0.7 4 1.6 7 l1.6 5.3 4.9 -4.9 4.9 -4.8 0 -1.6z m59.9 5.6 l5.3 -5.3 -6.4 -1.6 -6.3 -1.6 -5.3 5.2 -5.2 5.2 5.7 1.7 c3.2 0.9 6 1.7 6.3 1.7 0.3 0.1 2.9 -2.3 5.9 -5.3z m-586.3 -3.7 l5.5 -3.2 -6 -3.4 -6.1 -3.4 -5.9 3.3 -6 3.3 5.2 3.2 c2.9 1.8 5.8 3.3 6.5 3.3 0.7 0 3.7 -1.4 6.8 -3.1z m560.9 -2.9 c2.7 -2.7 4.7 -5.1 4.4 -5.4 -0.2 -0.2 -2.9 -1.1 -6.1 -1.9 l-5.6 -1.5 -5.2 5.3 -5.3 5.3 4.4 1.2 c2.4 0.6 4.9 1.3 5.4 1.5 0.6 0.2 1.5 0.4 2 0.4 l1.1 0.1 4.9 -5z m516.5 -11.2 l0 -16.3 -34.4 -19.7 c-18.9 -10.9 -34.6 -19.8 -35 -19.8 l-0.6 0 0.2 16.1 0.3 16 34.5 20 c19 10.9 34.6 19.9 34.8 19.9 0.1 0 0.2 -7.3 0.2 -16.2z m46.8 -6 l31.2 -18 0 -16.4 0 -16.3 -18.2 10.6 c-10.1 5.8 -25.8 14.9 -35 20.2 l-16.8 9.6 0 16.3 0 16.4 3.8 -2.2 c2 -1.2 17.8 -10.3 35 -20.2z m-493.3 12.2 c2.7 -2.7 4.7 -5.1 4.4 -5.3 -0.2 -0.2 -3.2 -1.1 -6.6 -1.9 l-6.1 -1.5 -5.2 5.2 -5.1 5.2 5.3 1.6 c2.9 0.8 6 1.6 6.8 1.6 l1.6 0.1 4.9 -5z m-583.5 -5.7 l0 -6.8 -7 -3.8 -7 -3.8 0 6.8 0 6.8 6.3 3.7 c3.4 2 6.5 3.7 7 3.7 l0.7 0.1 0 -6.7z m16.8 2.7 l6.2 -3.5 0 -6.8 0 -6.8 -7 3.8 -7 3.8 0 6.8 0 6.9 0.8 -0.4 c0.4 -0.1 3.5 -1.9 7 -3.8z m44.9 -6.5 l10.2 -5.9 -3 -1.8 -2.9 -1.8 -2.9 0 -2.8 0 -11.8 -6.7 -11.7 -6.6 -0.8 -2.3 -0.9 -2.2 -5.5 -3.1 -5.5 -3.2 -2.1 1.1 c-3 1.6 -2.5 2.4 2.9 5.3 2.7 1.5 5.3 3.3 5.9 4 l1.1 1.3 0.3 12.9 0.3 12.9 5.5 3.2 5.5 3.3 4 -2.3 c2.2 -1.2 8.6 -4.9 14.2 -8.1z m162.6 -3.5 l23.4 -13.4 -14.1 -8.3 -14.1 -8.2 -6 3.4 -6 3.3 -0.5 2.2 -0.5 2.3 -11 6.3 -11 6.4 -3.2 0 -3.2 0 -3.5 1.7 -3.5 1.6 14.2 8.3 c7.8 4.6 14.5 8.2 14.9 8.1 0.4 -0.1 11.3 -6.3 24.1 -13.7z m269.1 6.1 l4.8 -4.8 -1.9 -6.7 -1.8 -6.6 -5.2 5.2 -5.2 5.3 1.6 6.3 c0.8 3.4 1.8 6.2 2.2 6.2 0.4 0 2.8 -2.2 5.5 -4.9z m64.1 -0.1 l4.8 -4.9 -2.7 -1.1 c-1.5 -0.5 -4.4 -1.3 -6.4 -1.6 l-3.7 -0.5 -4.9 5 -4.9 5 4.9 1.5 c2.7 0.8 5.6 1.5 6.4 1.5 l1.6 0.1 4.9 -5z m-86.3 -17.6 c-0.9 -3.5 -1.9 -6.4 -2.2 -6.4 -0.3 0 -2.8 2.2 -5.4 4.9 l-4.9 5 1.8 6.6 1.8 6.7 5.2 -5.2 5.2 -5.1 -1.5 -6.5z m61.2 10.7 l4.9 -4.9 -5.3 -1.6 c-3 -0.9 -5.9 -1.6 -6.5 -1.6 -1.2 0 -11.1 9.8 -10.4 10.3 0.6 0.6 8.2 2.5 10.4 2.6 l2.1 0.1 4.8 -4.9z m58.6 -2.2 c0 -1.2 -3.1 -12.2 -3.5 -12.7 -0.2 -0.2 -2.5 -0.9 -5.1 -1.6 -2.7 -0.7 -5.8 -1.6 -7 -2 l-2.1 -0.6 2 7.3 1.9 7.4 5.7 1.5 c3.1 0.9 6.2 1.7 6.9 1.7 l1.2 0.1 0 -1.1z m-75.6 -19.3 c-0.8 -2.8 -1.7 -5.7 -2 -6.5 l-0.5 -1.5 -5 5 -5 4.9 0.6 2.9 c0.3 1.7 1 4.8 1.6 6.9 l1.1 4 5.3 -5.3 5.3 -5.3 -1.4 -5.1z m-499.4 6.4 c0 -0.3 -2.6 -1.9 -5.8 -3.7 l-5.8 -3.2 -5.9 3.3 -5.8 3.4 3.9 2.4 c2.1 1.4 4.8 3 5.9 3.5 l1.9 1.1 5.8 -3.1 c3.2 -1.8 5.8 -3.4 5.8 -3.7z m81.2 -1 l13.9 -8.1 3 -0.6 2.9 -0.5 0 -8.7 0 -8.6 -8 -4.5 -8 -4.5 0 -10.7 c0 -6 -0.2 -10.8 -0.4 -10.8 -0.6 0 -19.8 11 -21.4 12.3 l-1.3 1 6.1 3.4 6 3.4 0 17.2 0 17.2 -6 3.3 c-3.3 1.9 -6 3.6 -6 3.9 0 0.8 3.3 3.2 4.4 3.3 0.5 0 7.2 -3.6 14.8 -8z m65.9 7 c1 -0.6 1.9 -1.4 1.9 -1.8 0 -0.4 -2.7 -2.3 -6 -4.1 l-6 -3.5 0 -15.8 0 -15.8 -0.7 0 c-0.3 0 -5.2 2.7 -10.9 6 l-10.2 6 -2.6 0 -2.6 0 0 6.4 0 6.4 3.3 0.6 3.2 0.6 13.5 7.9 c7.4 4.3 13.9 7.9 14.3 8 0.5 0.1 1.7 -0.4 2.8 -0.9z m402.5 -0.7 c-0.2 -1 -1 -3.8 -1.7 -6.3 -0.7 -2.5 -1.5 -4.8 -1.9 -5.3 -0.8 -0.9 -14 -4.6 -14 -3.9 0 0.3 0.9 3.5 2 7.2 l2 6.7 5.2 1.5 c2.9 0.9 6.1 1.6 7.1 1.7 l1.8 0.1 -0.5 -1.7z m-75.1 -15.7 c-0.3 -1.7 -1 -4.8 -1.6 -6.9 l-1.1 -4 -5.3 5.3 -5.3 5.2 1.5 5.6 c0.8 3.2 1.7 6.1 2 6.5 l0.5 0.9 5 -4.9 4.9 -4.8 -0.6 -2.9z m49.5 8.2 c-0.5 -1.8 -1.4 -5.2 -1.9 -7.4 l-1.1 -4.2 -6.6 -1.6 c-3.7 -0.9 -6.9 -1.5 -7.1 -1.2 -0.4 0.4 2.6 12.5 3.3 13.4 0.1 0.2 3.3 1.2 7.1 2.2 3.7 1 6.9 1.9 7 1.9 0.1 0.1 -0.2 -1.4 -0.7 -3.1z m295 -4.5 l0 -3.8 -12.5 -7.2 -12.5 -7.2 0 3.7 0 3.7 12.3 7.1 c6.7 4 12.3 7.2 12.5 7.3 0.1 0.1 0.2 -1.6 0.2 -3.6z m25.3 -5.7 l9.7 -5.7 0 -3.5 0 -3.5 -5.7 3.2 c-3.2 1.8 -8.9 5.2 -12.8 7.4 l-7 4.1 -0.3 3.8 -0.3 3.8 3.3 -1.9 c1.8 -1.1 7.7 -4.6 13.1 -7.7z m208 -11 c18 -10.4 32.6 -19 32.5 -19.1 -0.2 -0.2 -11.8 -6.9 -25.8 -15 -14 -8.1 -25.8 -14.9 -26.2 -15.1 -0.3 -0.2 2.7 6.9 6.8 15.9 l7.4 16.2 -0.2 10 -0.3 10 -5 0.3 -5 0.2 -27 -2.4 c-14.8 -1.3 -27.1 -2.3 -27.3 -2.1 -0.1 0.1 7.5 4.7 17 10.3 l17.3 10.1 1.5 -0.2 c0.9 -0.1 16.3 -8.7 34.3 -19.1z m-564 1.3 c-0.5 -0.4 -2.2 -1 -3.9 -1.3 l-3.1 -0.7 1 4 1.1 4.1 2.8 -2.7 2.8 -2.7 -0.7 -0.7z m-447.9 3.6 c-1 -0.8 -2.2 -1.5 -2.6 -1.5 l-0.8 0 0 1.5 0 1.5 2.7 0 2.7 0 -2 -1.5z m134 0 l0.6 -1.5 -2 1 c-2.3 1.3 -2.6 2 -0.6 2 l1.4 0 0.6 -1.5z m368.6 0 c0 -0.3 -0.7 -3.5 -1.6 -7.1 l-1.6 -6.4 -5.7 -1.6 c-3.1 -0.8 -6.4 -1.8 -7.3 -2 l-1.7 -0.5 1.8 6.6 c1.1 3.7 2.3 7.1 2.7 7.5 0.5 0.5 3.4 1.5 6.4 2.3 6.5 1.8 7 1.9 7 1.2z m-483 -2.1 l0 -1.6 -1.7 1.3 c-1 0.7 -2 1.5 -2.2 1.6 -0.2 0.2 0.5 0.3 1.7 0.3 l2.2 0 0 -1.6z m780.8 -9.5 l6.4 -3.6 -4.7 -2.7 c-5.7 -3.1 -5.7 -3.1 -8 -0.6 l-1.8 2 -2.7 0 c-1.4 0 -6.3 -1.1 -10.7 -2.4 l-8.2 -2.3 -5.1 2.9 -5.2 2.9 0.5 0.6 c0.3 0.3 5.4 3.3 11.4 6.8 l10.8 6.3 5.5 -3.1 c3 -1.7 8.4 -4.8 11.8 -6.8z m-657.8 7.1 c0 -1.3 -1.1 -1.3 -3 0 l-1.5 1 2.3 0 2.2 0 0 -1z m372.9 -1.4 l2.3 -2.4 -0.9 -0.5 c-0.4 -0.2 -2.1 -0.7 -3.7 -1.1 l-2.9 -0.7 0.7 2.3 c0.3 1.3 0.6 2.9 0.6 3.6 0 1.9 1.4 1.4 3.9 -1.2z m-88.6 -13.9 c-0.8 -2.9 -1.7 -5.8 -1.9 -6.6 l-0.5 -1.5 -4.9 4.9 -5 4.9 0 1.4 c0 0.8 0.7 3.9 1.6 6.9 l1.6 5.5 5.3 -5.2 5.2 -5.2 -1.4 -5.1z m49.5 9.2 l-1.1 -4 -2.8 2.7 -2.9 2.8 0.7 0.7 c0.8 0.7 3.6 1.5 5.9 1.8 l1.2 0.1 -1 -4.1z m-342.5 -5.4 c-1 -0.6 -3.6 -2.2 -5.9 -3.4 l-4.1 -2.3 -5.7 3.2 -5.7 3.3 0.9 0.9 c0.6 0.6 3.2 2.3 5.8 3.8 l4.8 2.7 5.8 -3.5 5.9 -3.5 -1.8 -1.2z m-120.9 4.1 l5.8 -3.4 -5.8 -3.5 -5.9 -3.4 -5.7 3.1 c-3.2 1.7 -5.8 3.3 -5.8 3.6 0 0.6 10 6.8 11 6.9 0.3 0 3.1 -1.5 6.4 -3.3z m924.6 -6.6 l0 -9.9 7.3 -4.3 7.2 -4.3 6 -0.5 6 -0.5 -0.5 -8.2 -0.5 -8.2 -25.9 15 c-14.3 8.2 -26.1 15.1 -26.3 15.3 -0.4 0.4 24.6 15.3 26 15.5 l0.7 0.1 0 -10z m60 5.5 l0 -2.5 -2.2 0 c-1.3 0 -12 -0.9 -23.8 -2 -11.8 -1.1 -22.3 -2 -23.2 -2 l-1.8 0 0 2.3 0 2.3 23.3 2.1 c12.7 1.1 24.2 2.1 25.5 2.2 l2.2 0.1 0 -2.5z m-535.1 -3.9 l5.3 -5.3 -6.8 -1.7 -6.7 -1.7 -4.9 4.8 c-2.6 2.6 -4.8 5 -4.8 5.3 0 0.5 5.8 2.3 12 3.9 0.3 0 2.9 -2.3 5.9 -5.3z m-201.6 -1.7 l4 -1.1 -5.2 -5.2 -5.3 -5.3 -5.1 1.4 c-2.9 0.8 -5.8 1.7 -6.6 1.9 l-1.5 0.5 5 5 4.9 5 2.9 -0.6 c1.7 -0.3 4.8 -1 6.9 -1.6z m-176 -4.3 l4.7 -2.8 0 -6.8 0 -6.9 -7 4 -7 4.1 0 7 0 7 2.3 -1.4 c1.2 -0.8 4.3 -2.7 7 -4.2z m434.8 -2.1 l-1.7 -6.9 -7.3 -2.3 -7.2 -2.2 0.7 3.2 c0.3 1.7 1.2 5 1.8 7.2 l1.2 4 6.9 2.1 c3.9 1.1 7.1 2 7.2 2 0.1 -0.1 -0.6 -3.3 -1.6 -7.1z m-453.1 0.1 l0 -6.4 -1.2 -0.9 c-0.7 -0.5 -3.9 -2.4 -7 -4.2 l-5.8 -3.2 0 6.8 0 6.9 6.3 3.7 c3.4 2 6.5 3.7 7 3.7 l0.7 0 0 -6.4z m42.2 -1.7 c-0.4 -0.3 -2.8 -1.9 -5.4 -3.4 l-4.8 -2.7 0 6.6 0 6.5 5.5 -3.2 5.5 -3.1 -0.8 -0.7z m333.1 -1.7 l4.8 -4.9 -1.7 -6.7 -1.7 -6.8 -5.3 5.4 -5.3 5.3 1.6 6.3 c1 3.4 2 6.2 2.3 6.2 0.3 0 2.7 -2.2 5.3 -4.8z m551.7 3.5 c0 -0.5 -14.1 -31.1 -14.5 -31.5 -0.2 -0.2 -1.2 0.1 -2.4 0.7 l-2 1.1 4.5 9.7 4.5 9.8 -0.3 4 -0.3 4 -2.5 0.5 -2.5 0.4 6.5 0.7 c3.6 0.3 7.1 0.6 7.8 0.7 0.6 0.1 1.2 0.1 1.2 -0.1z m-498.5 -3.9 c-0.4 -1.8 -0.9 -3.5 -1.1 -3.7 -0.2 -0.3 -1.8 0.9 -3.5 2.5 l-3 2.9 2.3 0.6 c1.3 0.4 3.1 0.7 4.1 0.8 l1.9 0.1 -0.7 -3.2z m478.3 1.5 c-1 -0.2 -2.8 -0.2 -4 0 l-2.3 0.4 4 0 4 0.1 -1.7 -0.5z m-698.7 -8.1 l1.2 -5.3 -4.8 -4.9 -4.9 -5 -0.5 0.6 c-0.3 0.3 -1.3 3.1 -2.2 6.2 l-1.6 5.7 5.1 5.2 5 5.3 0.8 -1.3 c0.4 -0.6 1.3 -3.6 1.9 -6.5z m194.1 -4.2 l-1.9 -6.5 -6.7 -1.8 c-3.8 -1 -6.9 -1.7 -7.1 -1.5 -0.5 0.5 2.9 12.6 3.8 13.5 0.5 0.4 3.6 1.5 7 2.4 l6.2 1.5 0.2 -0.5 c0.2 -0.3 -0.5 -3.5 -1.5 -7.1z m-222.8 1.4 l6.3 -1.6 2 -7.3 1.9 -7.3 -7 2 c-3.9 1.1 -7.1 2 -7.2 2.1 -0.5 0.5 -3.4 11.2 -3.4 12.4 0 1.6 -0.2 1.6 7.4 -0.3z m545.6 -1.3 c0 -0.5 -0.7 -1.1 -1.5 -1.5 l-1.5 -0.5 0 0.8 c0 1 1.1 2.1 2.2 2.1 0.4 0 0.8 -0.4 0.8 -0.9z m-714.4 -5.2 l5.6 -3.2 -1.4 -1.2 c-0.7 -0.6 -3.3 -2.3 -5.8 -3.7 l-4.5 -2.5 -5.9 3.5 -5.9 3.5 5.9 3.3 c3.2 1.9 6 3.4 6.2 3.4 0.1 0 2.7 -1.4 5.8 -3.1z m-96.7 -29.6 l0.1 -4.3 -3.7 0 -3.8 -0.1 -1.9 -1.4 c-1.1 -0.8 -2.3 -1.5 -2.8 -1.5 l-0.8 0 0 3 0 3 4.5 0 4.5 0 1 2.6 1 2.5 0.1 5.7 0.2 5.7 0.7 -5.5 c0.5 -3 0.8 -7.4 0.9 -9.7z m810.9 -8.2 l0.5 -1.3 -1.4 0.4 c-0.7 0.2 -1.5 1 -1.7 1.7 l-0.4 1.4 1.3 -0.5 c0.7 -0.2 1.5 -1 1.7 -1.7z m-818 -25.3 l-0.3 -16.3 -34 -19.7 c-18.7 -10.8 -34.3 -19.7 -34.8 -19.7 l-0.7 -0.1 0.2 16.2 0.3 16.1 34 19.8 c18.7 10.8 34.3 19.8 34.8 19.8 l0.7 0.1 -0.2 -16.2z m83.2 -26.5 l72.5 -41.9 0.3 -16.2 c0.1 -8.9 0.1 -16.2 -0.2 -16.2 -0.2 0 -33.4 19.1 -73.7 42.3 l-73.4 42.4 -0.3 16.3 -0.3 16.2 1.3 -0.5 c0.7 -0.3 33.9 -19.4 73.8 -42.4z m675.9 38.2 l4.9 -2.4 3.1 -3.8 3.1 -3.7 1.6 -4.8 1.6 -4.8 -1.2 -3.7 -1.2 -3.8 -3.8 -5 c-2.1 -2.7 -17.7 -21 -34.7 -40.5 l-30.8 -35.4 -4.5 -3.4 -4.5 -3.5 -0.5 21.9 -0.5 21.9 -2.2 3.6 -2.3 3.6 -3.9 2.7 c-2.1 1.5 -6.1 3.6 -9 4.6 l-5.1 2 -8.7 1 -8.8 0.9 -8.5 -0.8 -8.6 -0.9 -5.9 -2.1 -5.9 -2.1 -3.6 -2.8 c-1.9 -1.6 -4.5 -4.4 -5.7 -6.2 l-2.3 -3.3 0 -23.3 0 -23.4 -86 0 -86.1 0 -3.7 1.9 c-4.6 2.3 -6.7 4.6 -8.7 9.4 l-1.6 3.8 2 4.3 1.9 4.3 3.7 2.8 3.7 2.9 0.9 -1.5 c0.5 -0.8 0.9 -1.7 0.9 -2.1 0 -0.4 1.5 -2.4 3.2 -4.4 l3.3 -3.7 4 -1.8 4 -1.9 54.3 0 54.2 0 0 3.9 0 3.8 -51.9 0.5 -51.9 0.5 -3.6 2.2 -3.6 2.2 -2 3 -2.1 2.9 -0.6 3.3 -0.5 3.4 1.6 3 1.5 3.1 3.1 2.6 3.2 2.6 1.4 0 1.4 0 0 -1.5 0 -1.5 4.1 -4.5 4.2 -4.5 5.1 -1.5 5.2 -1.5 52.4 0.2 52.5 0.3 0.3 4.3 0.3 4.2 -51.6 0 -51.6 0 -3.9 2 -3.8 2 -2.2 2.9 c-1.1 1.7 -2.5 4.3 -3.1 6 l-1 2.9 2 4.1 2.1 4 3.6 2.7 3.6 2.8 0.9 -1.5 c0.5 -0.8 0.9 -1.7 0.9 -2.1 0 -0.4 1.5 -2.4 3.2 -4.4 l3.3 -3.7 4 -1.8 4 -1.9 54.3 0 54.2 0 0 4 0 3.9 -51.2 0.3 -51.3 0.3 -4 2.1 -4 2.1 -2.3 3.3 c-1.2 1.9 -2.5 4.4 -2.8 5.7 l-0.6 2.3 0.6 2.4 0.6 2.4 2.7 3.3 2.7 3.2 4.1 1.8 4 1.9 47 0 47 0 1.9 -4.6 1.9 -4.6 3.9 -2.8 3.9 -2.9 5.2 -1.1 5.2 -1.1 41.5 0.3 41.5 0.3 0.3 4.3 0.3 4.2 -41.6 0 -41.6 0 -3.9 2 -3.9 2 -2.5 3.3 -2.6 3.4 -0.6 3.1 -0.6 3 2.3 4.2 2.4 4.2 4 2.4 4 2.4 70.3 0 70.3 0 4.8 -2.5z m198.1 -20.2 l16.9 -9.8 -0.8 -0.8 -0.8 -0.8 -17.1 9.8 -17 9.8 0.5 0.7 c0.2 0.5 0.6 0.8 0.9 0.8 0.3 0 8.1 -4.4 17.4 -9.7z m-688 4.8 l0 -1.8 -32.7 -18.8 c-18.1 -10.4 -33.9 -19.5 -35.1 -20.4 l-2.4 -1.5 0.4 2.3 0.3 2.3 34.5 19.9 c19 10.9 34.6 19.9 34.8 19.9 0.1 0 0.2 -0.8 0.2 -1.9z m43.1 -18 l34.4 -19.8 0.3 -2.2 0.4 -2.2 -4.9 2.8 c-2.7 1.5 -18.5 10.6 -35.1 20.2 l-30.2 17.5 0 1.8 c0 1 0.2 1.8 0.3 1.8 0.2 0 15.9 -8.9 34.8 -19.9z m-236.3 12.4 c-0.2 -0.2 -1 0 -1.7 0.4 l-1.4 0.9 0.8 1.2 0.8 1.3 0.9 -1.7 c0.6 -1 0.8 -1.9 0.6 -2.1z m230 -25.1 c16.9 -9.8 31.5 -18.3 32.5 -18.9 l1.8 -1.2 -10.5 -6.2 c-5.8 -3.3 -10.7 -6.1 -11 -6.1 -0.2 0 -0.6 4.5 -0.8 9.9 l-0.3 9.9 -3.1 3.9 c-1.7 2.1 -4.9 5 -7 6.5 l-3.9 2.7 -7 2.3 -7 2.3 -17 -0.1 -17 0 -6 -2.2 -6 -2.2 -5.1 -3.5 -5 -3.5 -2.4 -4.2 -2.4 -4.3 -0.4 -8.7 c-0.3 -4.9 -0.6 -8.8 -0.7 -8.8 -0.2 0 -5.1 2.8 -11 6.1 l-10.7 6.2 1.3 0.8 c0.8 0.4 15.8 9.1 33.4 19.3 l32 18.5 1.3 -0.4 c0.7 -0.3 15.1 -8.4 32 -18.1z m685.2 -3.8 l0 -16.4 -12.7 -7.3 c-7.1 -4 -13.8 -7.9 -15 -8.7 l-2.3 -1.4 0 16.5 0 16.5 14.8 8.6 c8.1 4.7 14.8 8.6 15 8.6 0.1 0 0.2 -7.4 0.2 -16.4z m29.5 4.8 l9 -5.2 0.3 -16.7 0.2 -16.8 -2.2 1.5 c-1.3 0.8 -8 4.8 -15 8.8 l-12.8 7.2 0 16.5 0 16.4 5.8 -3.2 c3.1 -1.8 9.8 -5.6 14.7 -8.5z m-108.3 -1.5 c8.7 -5 16 -9.4 16.3 -10 l0.6 -0.9 -1.2 0 c-0.7 0 -8.8 4.4 -18.1 9.7 l-16.8 9.6 0 1 0 0.9 1.7 -0.6 c1 -0.4 8.8 -4.8 17.5 -9.7z m-899 -2.1 l8.9 -5.1 -0.8 -0.7 c-0.4 -0.4 -4.5 -2.9 -9 -5.5 l-8.2 -4.7 -9.1 5.3 -9.2 5.2 1.4 0.8 c0.7 0.4 4.7 2.8 8.8 5.3 4.1 2.5 7.7 4.5 7.9 4.5 0.2 0.1 4.4 -2.2 9.3 -5.1z m117.6 -2.2 l-0.3 -2.4 -4.5 2.6 -4.5 2.7 3.2 0.3 3.2 0.3 1.3 1.6 1.3 1.6 0.3 -2.1 c0.2 -1.2 0.2 -3.3 0 -4.6z m687.2 2.5 c0 -0.5 -0.7 -1.1 -1.5 -1.5 l-1.5 -0.5 0 0.8 c0 1 1.1 2.1 2.2 2.1 0.4 0 0.8 -0.4 0.8 -0.9z m134 -24.3 l0 -16.3 -6.8 -3.7 c-3.7 -2.1 -10.4 -5.8 -14.9 -8.3 l-8.3 -4.6 0 16.3 0.1 16.3 14.2 8.2 c7.8 4.5 14.5 8.2 15 8.2 l0.7 0.1 0 -16.2z m-285.4 8.1 l5.2 -2 4.1 -2.9 4 -3 1.6 -2.9 1.5 -3 0 -25.7 0 -25.6 -1.7 0.7 c-1 0.4 -4.5 1.7 -7.8 2.8 l-6 2.1 -15.5 0 -15.5 0.1 -5 -1.4 c-2.7 -0.8 -6.7 -2.3 -8.7 -3.3 l-3.8 -1.8 0 25.5 0 25.6 1.9 3.8 1.9 3.7 3.9 2.6 c4.5 3.2 10.2 5.5 16.3 6.8 l4.5 0.9 6.9 -0.5 6.9 -0.6 5.3 -1.9z m-380.6 -0.6 l5.5 -1.5 4.2 -2.4 4.3 -2.5 2.5 -3.7 2.5 -3.7 0 -26.2 0 -26.2 -4.5 2 c-2.5 1.1 -7.6 2.7 -11.3 3.4 l-6.7 1.5 -9.5 0 -9.5 0 -6.7 -1.5 c-3.7 -0.7 -8.8 -2.3 -11.3 -3.4 l-4.5 -2 0 25.7 0 25.7 2.1 3.5 c2.7 4.4 4.1 5.5 11.4 9 l6 2.9 5.5 1 5.5 0.9 4.5 -0.5 c2.5 -0.2 7 -1.1 10 -2z m-279.9 -10 l3.9 0.5 0 -2.1 0 -2.2 -6 0 -6 0 0 2.8 0 2.8 2.1 -1.2 2.2 -1.1 3.8 0.5z m1023.9 -37 l0 -16.2 -15 8.6 -15 8.5 0 16.4 0 16.3 15 -8.7 15 -8.7 0 -16.2z m-39 16.8 l0 -15.8 -12.7 -7.3 c-7.1 -4.1 -13.8 -8 -15 -8.8 l-2.3 -1.4 0 16.3 0 16.4 14.3 8.2 c7.8 4.6 14.5 8.3 15 8.3 l0.7 0 0 -15.9z m-977.9 1.7 l9.1 -5.2 -1.8 -1.3 c-1.1 -0.8 -5.2 -3.2 -9.2 -5.4 l-7.2 -4 -9.1 5.2 -9.1 5.2 1.3 0.8 c4.2 2.5 16.4 9.7 16.7 9.8 0.1 0.1 4.3 -2.2 9.3 -5.1z m78 0.1 c4.9 -2.8 8.9 -5.3 8.9 -5.5 0 -0.4 -17 -10.4 -17.7 -10.4 -0.3 0 -4.6 2.3 -9.5 5.2 l-8.9 5.1 8.8 5.3 c4.8 2.9 9 5.3 9.2 5.3 0.2 0.1 4.3 -2.2 9.2 -5z m-42.1 -5.4 l0 -2 -6 0 -6 0 0 2 0 2 6 0 6 0 0 -2z m902.8 -22.3 l-0.3 -6.9 -11 6.4 c-6 3.5 -11.1 6.7 -11.2 7.1 l-0.2 0.7 11.2 6.2 11.2 6.2 0.3 -6.4 c0.2 -3.5 0.2 -9.5 0 -13.3z m-112.8 -5.9 l0 -3.5 -0.8 0.4 c-0.4 0.2 -6.2 3.5 -13 7.3 l-12.2 7 0 3.7 0 3.6 13 -7.5 13 -7.5 0 -3.5z m-35 14.3 l0 -3.4 -11.7 -6.7 c-6.5 -3.7 -12.2 -7 -12.6 -7.2 l-0.8 -0.5 0.3 3.7 0.3 3.7 11.5 6.8 c6.3 3.8 11.8 6.9 12.3 6.9 l0.7 0.1 0 -3.4z m-751.9 -3.3 c4.4 -2.5 8.2 -4.9 8.4 -5.3 l0.4 -0.6 -8.9 -5.1 -8.8 -5.1 -9.2 5.3 -9.2 5.3 6.9 4 c9.9 5.7 10.7 6.1 11.6 6.2 0.4 0 4.4 -2.1 8.8 -4.7z m78.4 0 c4.6 -2.7 8.5 -5.1 8.5 -5.4 0 -0.3 -2.1 -1.8 -4.7 -3.2 -2.7 -1.5 -6.6 -3.7 -8.8 -5.1 l-4 -2.4 -9.3 5.3 -9.3 5.3 8.8 5.1 c4.8 2.8 9.1 5.1 9.6 5.1 0.4 0 4.5 -2.1 9.2 -4.7z m-47 -4.1 l4.5 0.6 0 -2.2 0 -2.1 -6 0 -6 0 0 2.9 0 2.8 1.5 -1.2 1.5 -1.3 4.5 0.5z m926.2 -8.9 c7.3 -4.2 13.3 -7.9 13.3 -8.2 -0.1 -0.8 -26.2 -15.6 -27.5 -15.6 -1.2 0 -27.4 14.8 -27.5 15.5 0 0.7 26.2 15.9 27.4 16 0.5 0 6.9 -3.5 14.3 -7.7z m-189.3 -3.4 c5.8 -3.4 10.6 -6.5 10.6 -6.8 0 -0.4 -2.5 -2.1 -5.5 -3.8 l-5.5 -3.2 0 5.8 0 5.9 -1.7 1.3 -1.6 1.4 -7.7 0 -7.8 0 -2.1 -1.9 -2.1 -1.9 0 -5 0 -4.9 -1.4 0.5 c-0.8 0.3 -3.3 1.8 -5.7 3.2 l-4.2 2.7 7.9 4.5 c4.3 2.5 9.3 5.4 10.9 6.4 1.7 1 3.5 1.9 4.2 1.9 0.6 0 5.9 -2.8 11.7 -6.1z"/>
  <path d="M442.4 508.6 c-0.3 -0.8 -0.4 -2.7 -0.2 -4.3 l0.3 -2.8 5.5 -2.2 c3 -1.2 9.3 -2.9 13.9 -3.8 l8.4 -1.7 14.6 0.5 14.6 0.5 5 1.4 5 1.3 0.3 4.3 0.3 4.2 -3.5 0 c-1.9 0 -6.5 -0.7 -10.3 -1.6 l-6.8 -1.6 -11.5 0.5 -11.5 0.4 -9.1 3.2 -9.1 3.1 -2.7 0 -2.7 0 -0.5 -1.4z"/>
  <path d="M1186 625.8 l0 -2.3 5 -2.7 5 -2.8 2 0 2 0 0 5 0 5 -7 0 -7 0 0 -2.2z"/>
 </g>
 <g fill="#0000fc">
  <path d="M52 611.5 c0 -9.1 0.2 -16.5 0.5 -16.5 0.2 0 1.5 0.5 2.8 1.1 l2.4 1.1 3.2 -1.6 3.1 -1.7 0 17.1 0 17 -6 0 -6 0 0 -16.5z"/>
  <path d="M191 590.5 l0 -37.5 5.3 3 c2.8 1.7 6.2 3.6 7.5 4.2 l2.2 1.1 2.3 -1.1 c1.2 -0.6 4.6 -2.5 7.5 -4.2 l5.2 -3 0 37.5 0 37.5 -15 0 -15 0 0 -37.5z"/>
  <path d="M405 609 l0 -19 0.9 0 c0.6 0 1.3 0.5 1.6 1 0.4 0.6 2.9 2.2 5.6 3.5 l4.9 2.5 6.7 1.6 6.8 1.6 12 -0.5 12 -0.4 6 -2.3 c3.3 -1.3 7.7 -3.4 9.8 -4.7 l3.7 -2.3 0 19 0 19 -35 0 -35 0 0 -19z"/>
  <path d="M726.2 616.4 l-20.2 -11.7 0 -20.9 0 -21 6.3 3.5 c3.4 2 20.2 11.6 37.2 21.4 l31 17.9 0.3 11.2 0.3 11.2 -17.3 0 -17.3 0 -20.3 -11.6z"/>
  <path d="M784.2 616.8 l0.3 -11.3 36.5 -21.2 c20.1 -11.6 36.8 -21.2 37.3 -21.2 l0.7 -0.1 0 20.8 0 20.8 -20.3 11.7 -20.4 11.7 -17.2 0 -17.2 0 0.3 -11.2z"/>
  <path d="M914 578.5 l0 -49.4 5.8 3.3 5.7 3.4 0.3 46.1 0.2 46.1 -6 0 -6 0 0 -49.5z"/>
  <path d="M1087.6 624.9 c-1.5 -1.8 -3.8 -5.3 -5.1 -8 l-2.4 -4.7 -0.7 -4.1 -0.6 -4 0.6 -2.5 c0.3 -1.3 1.3 -3.2 2.2 -4 l1.5 -1.6 3 0 3 0 2.7 1.4 c1.5 0.8 4.1 2.9 5.9 4.8 l3.2 3.3 2.6 5.7 2.6 5.7 -0.3 5.3 -0.3 5.3 -7.6 0.3 -7.7 0.3 -2.6 -3.2z"/>
  <path d="M1109.7 627.3 l-0.7 -0.6 0 -4.2 0 -4.2 2.1 -2.7 2 -2.6 2.6 0 2.5 0 3.5 1.7 3.5 1.6 3.9 5 c2.1 2.7 3.9 5.3 3.9 5.8 l0 0.9 -11.3 0 -11.4 0 -0.6 -0.7z"/>
  <path d="M1134.7 624.9 c-1 -1.8 -1.6 -3.3 -1.5 -3.5 0.2 -0.1 2.8 1.3 5.8 3.1 l5.5 3.5 -4 0 -4 0 -1.8 -3.1z"/>
  <path d="M1157.5 625.7 c2.2 -1.3 12.7 -7.3 23.3 -13.5 l19.2 -11.1 0 9.7 0 9.7 -6.6 3.8 -6.6 3.7 -16.7 0 -16.6 0 4 -2.3z"/>
  <path d="M1195.5 626 c1.7 -1.1 3.3 -2 3.8 -2 l0.7 0 0 2 0 2 -3.7 0 -3.8 0 3 -2z"/>
  <path d="M1140.3 622.2 l-8.1 -4.7 33 -19 c18.1 -10.5 33.4 -19.2 33.9 -19.3 l1 -0.4 -0.3 9.8 -0.3 9.8 -24.5 14.2 c-13.5 7.9 -24.9 14.3 -25.5 14.3 -0.5 0 -4.7 -2.1 -9.2 -4.7z"/>
  <path d="M1076.8 620.1 c-4.8 -2.6 -6 -4.1 -3.3 -4.1 l1.5 0 1.2 -1.9 1.2 -1.9 2.3 5 c1.3 2.8 2.2 5.2 2.1 5.3 -0.2 0.2 -2.4 -0.9 -5 -2.4z"/>
  <path d="M1121.2 611.3 l-8.2 -4.7 0.7 -0.7 c0.7 -0.7 78.8 -46 84.1 -48.8 l2.2 -1.2 0 9.8 0 9.8 -30.8 17.7 c-16.9 9.7 -32.7 18.8 -35.2 20.2 l-4.5 2.5 -8.3 -4.6z"/>
  <path d="M1061.8 611.2 c-4.3 -3.2 -6.7 -6.1 -9.7 -11.9 l-2.1 -4.3 -0.7 -4.5 -0.6 -4.4 1.3 -3.2 1.3 -3.1 2.3 -0.8 2.2 -0.9 3.5 1 3.4 0.9 4.7 5 4.7 5 1.9 4.6 2 4.6 0 5.2 0 5.2 -1.6 2.2 -1.5 2.2 -3.7 0 -3.7 -0.1 -3.7 -2.7z"/>
  <path d="M1105.3 609 l-2.2 -5 3.7 1.9 c2 1.1 4.6 2.6 5.7 3.5 l2 1.5 -1.6 0.1 -1.7 0 -1.2 1.5 c-1.9 2.2 -2.3 1.9 -4.7 -3.5z"/>
  <path d="M1046.5 602.5 l-6 -3.4 1.4 -0.1 c0.8 0 2.4 -0.9 3.5 -1.9 l2.1 -2 2.6 5.5 c1.4 3 2.5 5.4 2.5 5.4 -0.1 0 -2.8 -1.6 -6.1 -3.5z"/>
  <path d="M1102.1 600.2 c-4.5 -2.5 -8.1 -4.8 -8.1 -5.1 0 -0.5 102.8 -60.1 105.1 -60.9 l0.9 -0.4 0 9.4 0 9.5 -44.9 26 -45 26 -8 -4.5z"/>
  <path d="M745.5 582.4 c-20.4 -11.7 -37.1 -21.7 -37.2 -22.1 l-0.3 -0.9 8.9 -5.1 9 -5.1 0.3 5.1 0.3 5 8.5 5.3 8.5 5.3 3 -1.9 3 -1.9 0.5 -6.8 0.5 -6.8 1.6 0.1 c0.9 0.1 10.4 5.4 21.2 11.8 l19.7 11.7 0 4.8 0 4.9 2.8 1.1 2.9 1.2 14.6 -8.7 14.7 -8.6 0 -7.9 0 -7.8 -2.8 -1.5 -2.7 -1.4 -2.5 1.4 -2.5 1.3 -2.6 0.1 -2.7 0 -10.6 -6.2 c-5.8 -3.4 -10.6 -6.5 -10.6 -6.8 0 -0.3 1.3 -1.3 3 -2.2 l2.9 -1.7 0.3 -6.4 0.3 -6.4 29.7 17.1 c16.4 9.4 29.8 17.4 29.8 17.7 0 0.4 -5.5 3.8 -12.2 7.7 -6.8 3.8 -23.6 13.5 -37.4 21.4 l-25 14.5 -36.9 -21.3z"/>
  <path d="M428 596.9 l-5.5 -1 -6.5 -3 -6.5 -3 -2.8 -2.7 c-3 -2.8 -5.7 -7.2 -5.7 -9.2 l0 -1.2 5 4.6 5.1 4.5 5.2 2 c2.9 1 8.1 2.5 11.5 3.2 l6.3 1.2 10.2 -0.6 10.2 -0.5 5.6 -2 c7.5 -2.7 11.2 -4.7 15.4 -8.3 l3.5 -3.1 0 1.3 c0 0.7 -1 2.7 -2.2 4.5 l-2.2 3.1 -4.6 3.2 -4.7 3.2 -6.4 2 -6.4 2 -9.5 0.4 -9.5 0.4 -5.5 -1z"/>
  <path d="M1032.4 594.1 c-5 -3.6 -6.7 -5.5 -9.8 -11.4 l-2.5 -4.8 -0.7 -4.6 -0.7 -4.5 1.6 -3.4 1.6 -3.3 2.6 -0.7 2.6 -0.6 4 1.8 4 1.7 3.1 3.6 3.1 3.5 2.3 5.1 2.3 5 0.1 3 c0.1 1.7 0.2 4.2 0.1 5.8 l-0.1 2.7 -2 2 -2 2 -2.8 0 -2.9 0 -3.9 -2.9z"/>
  <path d="M1076.8 594.3 c-0.7 -1.5 -2.1 -4.1 -3.2 -5.7 l-2 -3 5.9 3.4 c3.3 1.8 6.1 3.4 6.2 3.5 0.2 0.1 -1.1 1.1 -2.7 2.4 l-3 2.2 -1.2 -2.8z"/>
  <path d="M39.8 584.3 l-14.8 -8.6 0 -8.4 0 -8.4 4.3 2.5 c2.3 1.3 9.2 5.3 15.2 8.8 l11 6.4 0.3 8.2 0.3 8.2 -0.8 -0.1 c-0.4 0 -7.4 -3.9 -15.5 -8.6z"/>
  <path d="M59.2 584.9 l0.3 -8.1 15.3 -8.8 15.2 -8.8 0 8.3 0 8.3 -14.8 8.6 c-8.2 4.7 -15.2 8.6 -15.6 8.6 l-0.7 0 0.3 -8.1z"/>
  <path d="M1082.3 588.8 c-4 -2.3 -7.3 -4.5 -7.3 -5 0 -0.4 2.9 -2.3 6.4 -4.3 l6.4 -3.6 3.3 2 3.4 1.9 49.6 -28.7 c27.3 -15.8 50.4 -29.3 51.3 -30 l1.6 -1.3 0 -3.8 0 -3.8 1.5 -0.6 1.5 -0.5 0 9.7 0 9.7 -54.3 31.3 c-29.9 17.1 -54.8 31.2 -55.3 31.2 -0.5 0 -4.2 -1.9 -8.1 -4.2z"/>
  <path d="M430.5 588.9 c-8 -1.2 -14.3 -3.4 -19.7 -6.8 l-4.5 -2.9 -2.2 -3.1 -2.3 -3.2 -0.5 -3.8 -0.5 -3.9 1.1 -1.8 1 -1.9 0.1 2.8 0 2.9 1.6 3.5 1.7 3.4 4.4 3.4 4.4 3.4 6.7 2.3 6.7 2.3 11 0 11 0 5 -1.4 c2.8 -0.8 7.1 -2.4 9.6 -3.7 l4.5 -2.2 3.7 -4.1 3.7 -4.1 0.7 -4.2 0.7 -4.3 0.6 3 c0.3 1.7 0.4 4.2 0.2 5.7 l-0.4 2.7 -3.5 4.1 -3.5 4.1 -5.7 2.8 c-7 3.5 -12.8 4.9 -22.2 5.5 l-7.4 0.4 -6 -0.9z"/>
  <path d="M1017.3 585.9 l-5.2 -3.1 2.7 -2.3 c1.5 -1.3 2.8 -2.3 2.8 -2.2 0.5 0.7 5.4 10.7 5.2 10.6 -0.2 0 -2.6 -1.4 -5.5 -3z"/>
  <path d="M795 578.5 l0 -5.5 1 0 1 0 0 5.5 0 5.5 -1 0 -1 0 0 -5.5z"/>
  <path d="M800 578.8 l0 -5.4 9.3 -5.4 c5 -2.9 10.7 -6.2 12.5 -7.3 l3.2 -1.9 0 5.4 0 5.4 -9.2 5.4 c-5.1 2.9 -10.8 6.2 -12.5 7.3 l-3.3 1.9 0 -5.4z"/>
  <path d="M423.3 581 l-6.2 -2 -4.3 -3.3 -4.3 -3.3 -1.7 -3.4 -1.8 -3.5 0 -9.2 0 -9.3 0.8 0 c0.4 0.1 3.4 0.7 6.7 1.5 l6 1.5 28.3 0 28.2 0 0 8.8 0 8.7 -2.5 3.7 -2.5 3.7 -7.6 3.8 -7.7 3.7 -12.6 0.3 -12.6 0.3 -6.2 -2z"/>
  <path d="M1062.7 577.5 c-4.2 -2.5 -7.7 -4.7 -7.7 -5 0 -0.6 11.9 -7.5 13 -7.5 0.5 0 4.5 2.1 8.9 4.7 l8.1 4.7 -6.6 3.8 c-3.6 2.1 -6.9 3.8 -7.2 3.8 -0.4 0 -4.2 -2 -8.5 -4.5z"/>
  <path d="M1002.8 577.1 l-4.5 -2.9 -2 -2.8 c-1.1 -1.6 -3.1 -4.9 -4.3 -7.4 l-2.3 -4.5 -0.1 -5.7 -0.1 -5.6 1.9 -2.1 1.9 -2.1 2.9 0 2.9 0 2.7 1.4 c1.5 0.8 4.1 2.9 5.9 4.8 l3.2 3.3 2.4 5 c1.4 2.8 2.8 6.7 3.1 8.8 l0.7 3.8 -1.1 3.5 -1.2 3.4 -1.8 1 c-1 0.6 -2.7 1 -3.7 1 l-1.9 0 -4.6 -2.9z"/>
  <path d="M1045.8 575.2 c-1.2 -2.6 -2.4 -5.1 -2.6 -5.5 -0.3 -0.6 9.3 4.7 10.5 5.7 0.2 0.1 -1 1.2 -2.7 2.4 l-2.9 2.2 -2.3 -4.8z"/>
  <path d="M994.1 518.9 c-54.1 -31.2 -98.7 -57.1 -99.2 -57.6 l-1 -1 0.3 -12.6 0.3 -12.7 99 57.2 c54.5 31.4 99.1 57.2 99.3 57.3 0.1 0.1 0.1 6.1 0 13.2 l-0.3 13 -98.4 -56.8z"/>
  <path d="M1096 562.6 l0 -13.2 46.8 -26.9 c25.7 -14.8 47.7 -27.5 49 -28.3 l2.2 -1.4 0 13.3 -0.1 13.4 -29.2 16.8 c-16 9.2 -38.1 21.9 -48.9 28.2 l-19.8 11.4 0 -13.3z"/>
  <path d="M43.1 566.4 c-7.9 -4.6 -14.8 -8.7 -15.3 -9.2 l-0.9 -0.9 4.8 -2.8 c2.6 -1.5 6.2 -3.6 7.8 -4.6 l3.1 -1.8 7.4 4.4 7.5 4.3 4.5 -2.5 c2.5 -1.4 5.9 -3.4 7.6 -4.4 l3 -1.8 8.3 4.8 8.3 4.8 -15.3 8.8 c-8.5 4.8 -15.6 8.9 -15.9 9 -0.3 0.2 -7 -3.5 -14.9 -8.1z"/>
  <path d="M772 560.7 l-18.5 -11.2 -0.3 -5.2 c-0.2 -2.9 -0.1 -5.3 0.2 -5.3 1.1 0 44.6 26.3 44.6 26.9 0 0.4 -1.1 1.4 -2.5 2.1 l-2.5 1.3 0 1.4 0 1.3 -1.2 -0.1 c-0.7 0 -9.6 -5.1 -19.8 -11.2z"/>
  <path d="M798.9 568.7 l2.2 -2.4 -0.6 -1.4 -0.6 -1.5 -23.9 -14.3 -24 -14.3 -3.8 2.3 c-2 1.2 -4.5 2.9 -5.4 3.7 l-1.8 1.5 0 2.3 0 2.3 2.7 2.1 2.7 2.1 -1.4 0.9 -1.5 0.9 -3.5 -2.1 c-1.9 -1.2 -4.7 -2.8 -6.2 -3.7 -1.6 -0.9 -2.8 -1.8 -2.8 -2.1 0 -0.6 47.5 -29 48.4 -29 0.2 0 3.5 1.8 7.3 3.9 l6.8 4 -1.8 0.6 -1.7 0.7 -5.3 -2.2 -5.3 -2.2 -3.5 1 c-3.9 1 -11.9 5.8 -11.9 7 0 0.7 14.9 9.8 39.4 24 l9 5.2 2.4 0 2.3 0 2.8 -1.5 2.8 -1.4 0.7 0.6 0.6 0.6 -12.5 7.4 c-6.8 4 -13 7.3 -13.6 7.3 l-1.2 0 2.2 -2.3z"/>
  <path d="M986.8 568.2 l-4.8 -2.8 2.9 -2.2 2.9 -2.1 2.4 4.9 c1.4 2.8 2.2 5 1.9 5 -0.3 0 -2.7 -1.3 -5.3 -2.8z"/>
  <path d="M1043.1 566.2 l-8.3 -4.7 2.3 -1.5 c1.2 -0.8 4.3 -2.7 6.8 -4.1 l4.6 -2.7 7.4 4.4 c4.1 2.4 7.8 4.7 8.2 5.1 l0.8 0.8 -6.7 3.7 -6.8 3.7 -8.3 -4.7z"/>
  <path d="M735.3 561.9 l-6.3 -4.1 0 -5.4 0 -5.3 6.5 4 6.5 4.1 0 5.4 c0 3 -0.1 5.4 -0.2 5.3 -0.2 0 -3.1 -1.8 -6.5 -4z"/>
  <path d="M745.2 560.5 l0.3 -5.8 1.3 -0.5 1.2 -0.4 0 5 0 5 -1.6 1.2 -1.5 1.3 0.3 -5.8z"/>
  <path d="M1015.6 557.2 l-2.7 -5.4 4.8 2.7 c2.6 1.5 5.2 3.2 5.8 3.6 l0.9 0.9 -1.2 0 c-0.7 0 -2 0.8 -3.1 1.9 l-1.8 1.8 -2.7 -5.5z"/>
  <path d="M973.5 560.2 c-1.7 -1 -4.5 -3.6 -6.4 -5.7 l-3.4 -3.9 -2 -4.5 -2 -4.5 -0.1 -5.2 0 -5.3 1.8 -2 1.9 -2.1 3.6 0 3.5 0 3.8 2.6 3.8 2.7 3 4.6 3.1 4.6 1.5 5.3 1.6 5.4 -0.6 3.1 -0.6 3.1 -1.7 1.8 -1.6 1.8 -3.1 0 -3.1 0 -3 -1.8z"/>
  <path d="M1023.3 554.8 c-4 -2.3 -7.3 -4.5 -7.3 -5 0 -0.4 2.9 -2.3 6.4 -4.3 l6.3 -3.5 8.2 4.6 c4.4 2.5 8.1 4.9 8.1 5.3 0 0.9 -11.6 7.1 -13.2 7.1 -0.7 0 -4.6 -1.9 -8.5 -4.2z"/>
  <path d="M207.2 536.9 l0.3 -21.1 37.8 -21.8 37.7 -21.8 0 21.1 -0.1 21.2 -33.1 19 c-18.2 10.5 -35.3 20.3 -38 21.8 l-4.8 2.8 0.2 -21.2z"/>
  <path d="M166 535.6 l-36.5 -21.2 -0.3 -21.2 -0.2 -21.1 12.5 7.2 12.5 7.2 0 8.2 0 8.2 0.9 0.5 0.9 0.6 12.4 -1.1 12.3 -1.1 12 6.9 12 7 0.3 20.7 0.2 20.6 -1.2 -0.1 c-0.7 0 -17.7 -9.6 -37.8 -21.3z"/>
  <path d="M957.7 551.6 c-2.1 -1.3 -4.3 -2.8 -4.9 -3.4 l-1.2 -1.2 1.4 0 c0.7 0 2.1 -0.7 3 -1.5 l1.7 -1.5 2.6 5 c1.4 2.7 2.3 5 1.9 4.9 -0.4 0 -2.4 -1.1 -4.5 -2.3z"/>
  <path d="M45.8 546.2 l-9.7 -5.7 -0.1 -11.7 0 -11.7 10 5.7 10 5.7 0 11.8 c0 6.4 -0.1 11.7 -0.2 11.6 -0.2 0 -4.7 -2.6 -10 -5.7z"/>
  <path d="M59.2 540.4 l0.3 -11.8 9 -5.3 c5 -2.9 9.3 -5.3 9.8 -5.3 l0.7 0 0 11.3 0 11.3 -7.7 4.4 c-4.3 2.4 -8.8 5 -10.1 5.8 l-2.3 1.5 0.3 -11.9z"/>
  <path d="M745.9 547.3 l-3.2 -2.7 3.4 -2.8 c1.8 -1.5 3.7 -2.8 4.1 -2.8 l0.8 0 0 5.5 0 5.5 -0.9 0 c-0.5 0 -2.4 -1.2 -4.2 -2.7z"/>
  <path d="M1003.6 543.4 l-7.9 -4.6 7 -3.9 7 -3.9 8.2 4.6 8.2 4.7 -6.6 3.8 c-3.7 2.2 -7 3.9 -7.3 3.9 -0.4 0 -4.3 -2.1 -8.6 -4.6z"/>
  <path d="M412 546.1 c-4.2 -1.3 -10.3 -4.8 -13.6 -7.8 -1.8 -1.5 -17.9 -19.9 -35.9 -40.7 l-32.7 -37.9 -1.9 -4.1 -1.9 -4.1 0 -5.5 0 -5.5 2.4 -5 2.3 -5 3.8 -3.4 c2.1 -1.8 5.3 -4 7.1 -4.7 l3.3 -1.4 73.1 0 73.1 0 2.7 1.4 c5.4 2.8 10.2 10.3 10.2 15.8 l0 2.3 -5.7 -0.4 -5.7 -0.3 -1.1 -1.4 -1 -1.3 -12.7 -3.3 -12.7 -3.3 -5 4.9 -4.9 4.8 -11.4 -0.1 -11.5 -0.2 -1 1.3 -1 1.3 -0.6 5.2 -0.6 5.3 -2.1 4.7 -2.1 4.8 -4 4.7 c-4.3 5.1 -4.6 5.8 -2.5 5.8 l1.4 0 4.1 -5.4 4.2 -5.5 1.9 -4.8 c1 -2.6 2.1 -6.9 2.5 -9.6 l0.7 -4.7 9.6 0 9.6 0 -3.4 3.5 -3.4 3.5 3.3 12.7 c1.8 7.1 3.6 13.1 3.9 13.5 0.4 0.3 6.5 2.2 13.7 4.2 l12.9 3.6 7.2 -7.1 7.1 -7.1 26 29.9 c14.4 16.4 26.8 30.5 27.7 31.2 l1.6 1.3 0 -1.4 0 -1.4 -8 -9.2 -8.1 -9.2 54.3 0 54.3 0 1.7 3 1.7 3 1.6 0.6 1.6 0.6 0.6 -0.6 0.7 -0.6 -2.2 -2 c-1.2 -1.2 -2.2 -2.5 -2.2 -3 l0 -1 10.5 0 10.6 0 3.9 2 3.8 2 2 2.7 2 2.8 1.1 4.2 1.2 4.2 -0.7 2.8 c-0.4 1.5 -1.5 4.5 -2.5 6.5 l-1.9 3.7 -4.3 2.6 -4.4 2.5 -125.9 -0.1 -125.9 -0.1 -2.5 -0.7z m59.7 -46 l9.2 -1 8.4 0.9 c4.6 0.5 10.3 1.4 12.7 2 l4.2 1.1 0.6 -0.6 0.6 -0.5 -1 -1 -1 -1 -8.5 -1.6 -8.4 -1.6 -11.5 0.5 -11.5 0.5 -7.4 2.2 c-4 1.1 -8.7 2.8 -10.3 3.6 l-2.9 1.5 0.6 0.8 0.5 0.9 8.2 -2.9 8.3 -2.8 9.2 -1z"/>
  <path d="M994.4 489.7 l-99.1 -57.2 1.6 -1.1 c0.9 -0.6 4.2 -2.5 7.4 -4.3 l5.7 -3.2 0 1.4 0 1.4 -4.1 2.8 -4.1 2.7 1.3 1.3 c0.8 0.6 44.1 25.6 96.3 55.4 l94.9 54.1 44.3 -25.6 c24.4 -14.1 44.6 -26 44.9 -26.5 l0.6 -0.8 -5.6 -3.2 -5.5 -3.1 0 -1.9 c0 -1 0.3 -1.9 0.6 -1.9 0.4 0 4.7 2.3 9.6 5.2 l8.9 5.1 -0.8 0.8 c-1.3 1.2 -96.2 55.9 -97 55.9 -0.5 0 -45.4 -25.8 -99.9 -57.3z"/>
  <path d="M985.9 540.3 c-1.4 -2.9 -2.4 -5.3 -2.3 -5.3 0.7 0 9.5 5.4 9.9 6.1 l0.6 0.9 -1 0 c-0.6 0 -1.9 0.8 -2.9 1.8 l-1.8 1.8 -2.5 -5.3z"/>
  <path d="M944.5 543.8 c-1.1 -0.6 -3.5 -2.5 -5.3 -4.2 l-3.4 -3.1 -3.1 -6 -3 -6 0 -5.3 0 -5.3 1.8 -1.9 c1 -1.1 2.6 -2.2 3.7 -2.6 l1.9 -0.6 4.4 2.2 4.5 2.2 2.5 3 c1.5 1.7 3.8 5.4 5.2 8.2 l2.6 5.1 0.1 5.6 0.1 5.7 -1.9 2.1 -1.9 2.1 -3.1 0 -3.1 -0.1 -2 -1.1z"/>
  <path d="M1092.4 538.7 c-0.2 -0.7 -0.3 -5.8 -0.2 -11.2 l0.3 -9.9 36 -20.7 c19.8 -11.4 37.2 -21.5 38.8 -22.4 l2.7 -1.6 0 11.8 -0.1 11.8 -37.8 21.8 c-20.8 11.9 -38.1 21.7 -38.5 21.7 -0.4 0 -0.9 -0.6 -1.2 -1.3z"/>
  <path d="M781.5 535.6 c-3.3 -1.3 -7.7 -3.3 -9.9 -4.6 l-3.8 -2.3 3.8 -2.4 3.9 -2.3 2.5 0 2.5 0 4.2 1.8 4.3 1.7 0 5.3 0 5.2 -0.7 -0.1 c-0.5 0 -3.5 -1.1 -6.8 -2.3z"/>
  <path d="M792 532.6 l0 -5.5 1 -0.6 1 -0.6 0 5.5 0 5.5 -1 0.6 -1 0.6 0 -5.5z"/>
  <path d="M927.1 533.8 l-5.4 -3.1 2.7 -1.4 2.6 -1.4 0 -1.1 0 -1.1 0.6 0.6 c0.7 0.6 5.5 10.7 5.1 10.7 -0.1 0 -2.6 -1.5 -5.6 -3.2z"/>
  <path d="M984.1 532.1 l-8.4 -4.9 6.3 -3.6 c3.4 -2 6.6 -3.8 7 -3.9 0.4 -0.1 4.6 2 9.4 4.7 l8.8 4.9 -6.7 3.8 c-3.7 2.2 -7 3.9 -7.3 3.9 -0.4 0 -4.5 -2.2 -9.1 -4.9z"/>
  <path d="M1082.2 533.2 l-6.3 -3.7 0.3 -10.3 0.3 -10.4 16.5 -9.5 c9.1 -5.2 26.5 -15.3 38.8 -22.4 l22.3 -12.8 -0.3 7.6 -0.3 7.7 -15 8.7 c-8.2 4.9 -15.3 8.8 -15.7 8.9 l-0.8 0 0 -2.4 0 -2.5 -1 -0.6 -1.1 -0.7 -7.4 4.3 -7.5 4.3 0 4 0 4.1 -7.8 4.5 -7.7 4.5 -0.5 10.1 -0.5 10.2 -6.3 -3.6z"/>
  <path d="M912.9 525.2 l-4.4 -2.8 -2.7 -4 c-1.5 -2.1 -3.4 -5.6 -4.3 -7.6 l-1.5 -3.7 0 -5.6 0 -5.5 2 -2 2 -2 2.5 0 2.6 0 2.8 1.4 2.8 1.5 3.7 4.2 3.8 4.2 2.1 4.6 2.1 4.6 0 5.8 0.1 5.9 -2.4 1.9 -2.3 1.9 -2.2 0 -2.2 0 -4.5 -2.8z"/>
  <path d="M955.7 522.7 c-1.5 -2.8 -2.6 -5.1 -2.4 -5.2 0.1 -0.1 2.6 1.2 5.4 3 l5.3 3.2 -2.8 2 -2.8 2.1 -2.7 -5.1z"/>
  <path d="M1070.7 526.5 l-1.8 -1.3 0.3 -10.3 0.3 -10.3 38.5 -22.2 38.5 -22.3 0.3 2.1 0.4 2 -1 1 c-0.5 0.5 -17.1 10.3 -36.8 21.7 l-35.9 20.7 -0.5 10.1 -0.5 10.1 -1.8 -1.3z"/>
  <path d="M48.2 521.2 c-4.5 -2.7 -8.6 -5.2 -9.2 -5.8 l-0.9 -0.9 9.8 -5.6 9.9 -5.7 9.6 5.6 c5.3 3.1 9.6 5.8 9.6 6.1 0 0.8 -18.4 11.1 -19.6 11.1 -0.5 0 -4.6 -2.2 -9.2 -4.8z"/>
  <path d="M964.2 520.8 l-7.2 -4.2 1.2 -1.2 c0.7 -0.6 3.8 -2.5 6.8 -4.2 l5.5 -3 7.8 4.5 c4.2 2.5 7.7 4.8 7.7 5.1 0 1 -11.6 7.2 -13.2 7.2 -0.7 0 -4.6 -1.9 -8.6 -4.2z"/>
  <path d="M1061 521 l-4.5 -2.6 0 -10.4 0 -10.4 36 -20.7 c19.8 -11.4 37.2 -21.5 38.8 -22.4 l2.7 -1.6 0 5.8 0 5.8 -32.2 18.5 c-17.7 10.2 -33 19.2 -34 20 l-1.8 1.5 -0.2 9.6 -0.3 9.5 -4.5 -2.6z"/>
  <path d="M897.4 516.6 l-5 -3.1 2.7 -2.2 2.7 -2.3 2.5 5.2 c1.4 2.9 2.5 5.3 2.4 5.4 -0.1 0 -2.5 -1.3 -5.3 -3z"/>
  <path d="M1048.2 513.8 l-3.3 -2 0.3 -10.5 0.3 -10.5 38.5 -22.2 38.5 -22.2 0.3 5 0.3 5.1 -0.8 0.3 c-0.4 0.1 -15.9 9 -34.3 19.6 l-33.5 19.4 -0.3 10.1 -0.3 10.1 -1.2 -0.1 c-0.7 0 -2.7 -1 -4.5 -2.1z"/>
  <path d="M945.3 509.8 c-4 -2.3 -7.3 -4.5 -7.3 -4.9 0 -0.4 2.9 -2.4 6.5 -4.3 l6.4 -3.7 8.1 4.7 8 4.6 -0.5 0.8 c-0.8 1.2 -11.3 7 -12.7 7 -0.7 0 -4.6 -1.9 -8.5 -4.2z"/>
  <path d="M194.7 507.1 l-9.8 -5.8 8.3 -0.9 8.3 -0.9 0.3 -8 0.3 -8 -6 -3.7 -6 -3.8 -7.9 0.8 -7.9 0.8 1.8 -4.2 1.8 -4.2 -1.7 -1.4 c-2.5 -2.1 -8.8 -5.8 -9.9 -5.8 l-1 0 -4.3 10.3 c-2.4 5.6 -4.6 10.6 -5.1 11.1 l-0.7 0.8 -12.1 -6.8 c-6.6 -3.8 -12 -7.1 -12 -7.4 0 -0.6 72.6 -42.4 74.4 -42.8 l1.4 -0.3 4.8 2.8 4.8 2.8 -3 0.5 -3 0.5 -0.5 7 -0.5 7 -2.9 -6.7 c-1.5 -3.8 -3.1 -6.8 -3.5 -6.8 -1.1 0 -10.5 6.1 -11.3 7.4 l-0.8 1.1 0 6 0 6 9.2 21.8 9.2 21.7 0.9 0 c0.5 0 3.3 -1.5 6.3 -3.2 l5.4 -3.3 0 -7.6 0 -7.6 -5.9 -13.6 -5.9 -13.6 5.4 3.6 5.5 3.6 6.4 -0.9 6.5 -1 0 4.8 0 4.7 5.2 3.6 c2.9 1.9 5.8 3.5 6.4 3.5 l1.1 0 1 -3.7 c0.6 -2.1 1.6 -6.2 2.3 -9.1 l1.2 -5.3 0.9 0.3 c1.9 0.7 28.8 16.3 28.8 16.8 0 0.8 -72.8 42.5 -74.7 42.7 l-1.7 0.2 -9.8 -5.8z"/>
  <path d="M885.5 509.6 l-3.1 -1.3 -4.6 -5.2 -4.6 -5.1 -1.6 -4.7 -1.6 -4.7 0 -4.6 0 -4.6 1.6 -2.2 1.5 -2.2 3.1 0 3.1 0 4.1 2.4 4.1 2.4 2.1 2.9 c1.2 1.6 3.2 4.9 4.5 7.3 l2.3 4.5 0 6.3 0.1 6.4 -2.4 1.9 -2.3 1.9 -1.7 0 c-0.9 -0.1 -3 -0.7 -4.6 -1.4z"/>
  <path d="M925.8 505.4 l-2.6 -5.4 4.6 2.7 c2.6 1.4 5 2.9 5.5 3.3 l0.7 0.6 -2.8 2.1 -2.7 2 -2.7 -5.3z"/>
  <path d="M1040.3 509.3 l-1.3 -0.5 0 -10.2 0 -10.2 8.9 -5.2 c9.7 -5.7 10.1 -5.8 10.1 -3.9 l0 1.2 -7.7 4.5 -7.8 4.5 -0.5 10.1 -0.5 10.1 -1.2 -0.4z"/>
  <path d="M1196.9 504.6 l-0.4 -4.4 1.8 1 1.8 0.9 -0.3 3.1 -0.3 3.1 -1.1 0.4 -1.2 0.4 -0.3 -4.5z"/>
  <path d="M521.6 498 l-8.6 -10 54.5 0 54.6 0 0.6 1.8 c0.7 2.1 4.3 6.2 5.5 6.2 1.4 0 0.9 -1.9 -1.2 -4 -1.1 -1.1 -2 -2.5 -2 -3.1 l0 -1.1 11.3 0.3 11.4 0.4 4 2.7 4.1 2.7 2.1 4.3 2.1 4.4 0 2.7 0 2.7 -64.8 0 -64.9 0 -8.7 -10z"/>
  <path d="M1034.3 505.7 l-2.2 -1 -0.3 -10.7 -0.3 -10.7 37.5 -21.6 c20.6 -11.9 38.3 -21.9 39.3 -22.2 l1.7 -0.7 0 2.8 0 2.9 -17.4 10 c-9.6 5.5 -18.1 10 -18.9 10 -0.8 0 -4.7 1.8 -8.6 4 l-7.1 4 0 1 0 1 -10.5 5.9 -10.4 6 -0.3 10.1 -0.3 10.2 -2.2 -1z"/>
  <path d="M1107 503.6 l0 -2.4 5.5 -3.1 c3 -1.7 5.7 -3.1 6 -3.1 0.3 0 0.5 1 0.5 2.3 l0 2.2 -6 3.3 -6 3.3 0 -2.5z"/>
  <path d="M868.3 499.8 c-2.9 -1.6 -5.3 -3.3 -5.3 -3.6 0.1 -0.8 5 -4.6 5.3 -4 1.6 3 5.4 10.8 5.3 10.7 0 0 -2.5 -1.4 -5.3 -3.1z"/>
  <path d="M925.6 498.4 l-7.8 -4.6 6.3 -3.9 c3.5 -2.1 6.7 -3.8 7 -3.9 0.9 0 17 9.2 16.7 9.5 -1 1 -12.8 7.5 -13.5 7.5 -0.4 0 -4.3 -2.1 -8.7 -4.6z"/>
  <path d="M1024.8 500.4 l-2.8 -1.5 0 -10.2 0 -10.3 36.3 -20.9 c19.9 -11.5 37.6 -21.7 39.3 -22.7 l3 -1.8 -0.5 4.1 -0.6 4 -35 20.2 -35 20.2 -0.3 10.3 -0.3 10.2 -0.7 0 c-0.4 -0.1 -1.9 -0.8 -3.4 -1.6z"/>
  <path d="M157 495.5 l0 -5.5 2.3 -0.4 c2.3 -0.5 35.2 -3.6 38 -3.6 l1.7 0 0 5.5 0 5.5 -2.2 0.4 c-2.4 0.5 -35.3 3.6 -38.1 3.6 l-1.7 0 0 -5.5z"/>
  <path d="M1017.3 496.2 l-1.2 -0.7 -0.3 -10.6 -0.3 -10.6 37.9 -21.9 c20.8 -12 38.5 -22 39.2 -22.2 l1.4 -0.3 0 1.9 0 2 -37 21.3 -37 21.4 0 10.2 0 10.3 -0.7 0 c-0.5 0 -1.3 -0.4 -2 -0.8z"/>
  <path d="M212 488.8 l0 -5.3 3.5 -2.3 3.5 -2.2 0 5.4 0 5.5 -2.9 2 c-1.6 1.2 -3.2 2.1 -3.5 2.1 l-0.6 0 0 -5.2z"/>
  <path d="M895.9 488.3 c-1.4 -2.9 -2.3 -5.2 -2 -5.1 0.3 0.2 3 1.6 6 3.3 l5.3 2.9 -1.3 0.4 c-0.8 0.3 -2.3 1.2 -3.4 2.2 l-2 1.7 -2.6 -5.4z"/>
  <path d="M853.5 491.1 c-4.2 -2.5 -8.3 -7.6 -11.1 -13.6 l-2.4 -5 0 -5 0 -5.1 1.6 -2.2 1.5 -2.2 3.7 0 3.7 0 3.7 2.5 3.7 2.5 3.2 4.6 3.2 4.7 1.3 4.5 c0.8 2.5 1.4 5.8 1.4 7.4 l0 2.9 -1.5 2.9 -1.6 3 -3.7 0 -3.7 0 -3 -1.9z"/>
  <path d="M1007.7 490.7 l-3.7 -2.2 0.2 -10.4 0.3 -10.4 34.5 -19.9 c19 -10.9 36.4 -21 38.8 -22.4 l4.3 -2.5 -0.3 5.1 -0.3 5.2 -18 10.4 -18 10.3 -0.3 -3.4 c-0.2 -1.9 -0.6 -3.5 -0.8 -3.5 -1.1 0 -13.5 7.2 -14.9 8.7 l-1.5 1.4 0 3.4 0 3.4 -7.2 4.3 -7.3 4.4 -0.3 10.2 -0.3 10.2 -0.7 0 c-0.4 -0.1 -2.4 -1.1 -4.5 -2.3z"/>
  <path d="M906.1 487.1 l-8.3 -4.8 6.6 -3.7 6.7 -3.7 1.2 0.3 c2.2 0.6 15.7 8.3 15.7 9 0 0.5 -12.2 7.8 -13.2 7.8 -0.2 0 -4.1 -2.2 -8.7 -4.9z"/>
  <path d="M201.2 472 l-7.3 -17.2 0.3 -3.1 0.3 -3.2 7.3 17.2 7.3 17.1 -0.3 3.2 -0.3 3.2 -7.3 -17.2z"/>
  <path d="M158 486.6 c0 -1 8.1 -20 8.9 -20.8 l0.7 -0.8 3.7 2.6 3.7 2.5 -2 3.9 c-1.1 2.2 -2 4.4 -2 5.1 l0 1.2 9.4 -0.7 9.5 -0.7 2.5 1.7 c1.5 0.9 2.6 1.9 2.6 2.3 l0 0.7 -14.7 1.3 c-8.2 0.7 -16.5 1.5 -18.5 1.8 l-3.8 0.6 0 -0.7z"/>
  <path d="M996.2 483.9 l-5.3 -3 0.3 -10.6 0.3 -10.6 34.5 -19.9 c19 -10.9 36.4 -21 38.8 -22.4 l4.2 -2.5 0 6.3 0 6.3 -16.9 9.8 c-9.3 5.3 -17.2 9.7 -17.5 9.7 -0.3 0 -0.6 -1.3 -0.6 -3 l0 -3 -1.1 0 c-0.6 0 -4.5 1.9 -8.5 4.2 l-7.4 4.2 0 4.1 0 4.1 -7.5 4.3 -7.4 4.2 -0.3 10.4 -0.3 10.5 -5.3 -3.1z"/>
  <path d="M503.8 477.5 l-7.3 -8.5 0 -1.2 0 -1.3 53.3 -0.3 53.2 -0.2 0 1.3 0 1.4 2.3 2.1 c2.1 2 4.7 2.9 4.7 1.8 0 -0.3 -1.2 -1.8 -2.6 -3.3 l-2.6 -2.8 11.1 -0.3 11.1 -0.3 3.9 2 3.9 2.1 2 2.7 2 2.8 1.1 4.3 1.2 4.2 -0.6 1 -0.6 1 -64.4 0 -64.3 0 -7.4 -8.5z"/>
  <path d="M837.1 481.8 l-5.5 -3.2 1.5 -0.4 c0.8 -0.3 2.2 -1.1 3.2 -2 0.9 -0.8 1.8 -1.3 2 -1.1 0.6 1 4.6 9.9 4.4 9.9 -0.1 0 -2.6 -1.5 -5.6 -3.2z"/>
  <path d="M210.1 478.8 c-0.5 -1.3 -4.1 -9.8 -8 -19 -3.9 -9.2 -7.1 -17.1 -7.1 -17.5 0 -0.5 1.7 -1.8 3.7 -2.9 l3.7 -2.1 7.7 18.2 c4.3 10 7.9 18.7 8.1 19.4 l0.3 1.3 -3.8 2.4 -3.7 2.4 -0.9 -2.2z"/>
  <path d="M467.3 478.1 c-5 -1.4 -9.5 -3 -10 -3.4 l-0.8 -0.9 2.5 0.7 c1.4 0.3 6.1 1.7 10.5 2.9 l8 2.4 6.5 -6.4 c3.6 -3.5 7 -6.4 7.5 -6.4 l0.9 0 -6.9 7 -6.9 7 -1.1 -0.1 c-0.5 -0.1 -5.1 -1.3 -10.2 -2.8z"/>
  <path d="M887.2 476.3 c-4.5 -2.6 -8.2 -4.9 -8.2 -5.2 0 -0.3 3 -2.2 6.8 -4.3 l6.7 -3.6 7.8 4.5 c4.2 2.5 7.7 4.8 7.7 5.2 0 0.4 -1.5 1.5 -3.2 2.5 -1.8 1 -4.7 2.7 -6.3 3.7 l-3.1 1.8 -8.2 -4.6z"/>
  <path d="M984.8 477.4 l-2.8 -1.5 0 -10.7 0.1 -10.7 33 -19 c18.2 -10.4 35.8 -20.5 39.1 -22.4 l5.9 -3.4 -0.3 3.9 -0.3 3.8 -35.5 20.6 -35.5 20.5 -0.5 10.2 -0.5 10.1 -2.7 -1.4z"/>
  <path d="M1060 476.7 l0 -2.4 5.2 -2.9 c2.9 -1.6 5.6 -3 6 -3.2 l0.8 -0.4 0 2.4 0 2.3 -5.2 3 c-2.9 1.7 -5.6 3.2 -6 3.3 l-0.8 0.4 0 -2.5z"/>
  <path d="M866.5 472.2 c-1.1 -2.5 -2.2 -5 -2.4 -5.5 l-0.4 -1 5.2 2.9 c4.8 2.7 6.4 4.4 4.1 4.4 -0.5 0 -1.7 0.9 -2.7 1.9 l-1.8 2 -2 -4.7z"/>
  <path d="M822.8 473.5 l-3.7 -2.5 -3.1 -4.5 c-1.7 -2.5 -3.7 -6.3 -4.5 -8.6 l-1.5 -4.2 0 -4.3 0 -4.3 2.3 -2.7 2.3 -2.7 3.6 0.7 3.6 0.6 4.4 3.9 4.4 3.9 2.8 5.2 2.8 5.1 0.5 5.7 0.5 5.7 -2.2 2.8 -2.1 2.7 -3.2 0 -3.2 0 -3.7 -2.5z"/>
  <path d="M1158.1 475.1 l-1.3 -0.8 0.4 -2.2 0.3 -2.1 2.9 1.9 2.8 1.9 -1.9 1 -1.9 1.1 -1.3 -0.8z"/>
  <path d="M976.7 472.8 l-1.8 -1.3 0.3 -10.5 0.3 -10.4 36 -20.7 c19.8 -11.4 37.2 -21.5 38.8 -22.4 l2.7 -1.6 0 2.4 0 2.4 -37 21.4 -36.9 21.3 -0.3 10.3 -0.3 10.4 -1.8 -1.3z"/>
  <path d="M452.1 464.8 c-1.2 -4.6 -2.6 -9.6 -3.2 -11.3 l-0.9 -2.9 7.9 -8 8 -8 0.6 0.6 c0.3 0.3 1.9 5.3 3.5 11.2 l2.8 10.6 -0.8 -0.5 c-0.4 -0.3 -1.8 -4.5 -3 -9.5 l-2.2 -9 -0.7 0 c-0.4 0 -2 1.4 -3.6 3 l-2.9 3 -1.3 0 -1.3 0 0 1.2 c0 0.7 -1.1 2.4 -2.6 3.9 l-2.5 2.6 2.6 10.3 c1.4 5.6 2.4 10.4 2.2 10.7 -0.3 0.2 -1.4 -3.3 -2.6 -7.9z"/>
  <path d="M867.8 465.1 c-4.3 -2.5 -7.8 -4.9 -7.8 -5.2 0 -0.7 29.4 -17.9 30.5 -17.9 0.3 0 0.5 4.2 0.5 9.4 l0 9.4 -4.7 2.7 c-2.7 1.5 -6.1 3.5 -7.8 4.5 l-3 1.7 -7.7 -4.6z"/>
  <path d="M970.3 469.3 l-1.3 -0.5 0 -10.7 0 -10.7 38.5 -22.2 c21.1 -12.2 38.7 -22.2 39 -22.2 0.3 0 0.5 0.8 0.5 1.8 l0 1.7 -35.7 20.5 c-19.6 11.3 -36.5 21.2 -37.5 22 l-1.8 1.5 -0.2 9.6 -0.3 9.6 -1.2 -0.4z"/>
  <path d="M1075 468.8 l0 -1.3 15.7 -9 c8.6 -4.9 18.2 -10.5 21.4 -12.3 l5.7 -3.2 -0.5 1.8 -0.4 1.8 -20.3 11.7 c-11.2 6.4 -20.6 11.7 -20.9 11.7 -0.4 0 -0.7 -0.6 -0.7 -1.2z"/>
  <path d="M240.3 465.2 l-4.3 -2.7 0 -5.2 c0 -2.9 0.2 -5.3 0.5 -5.3 0.3 0 2.3 1.1 4.5 2.5 l4 2.5 0 5.5 c0 3 -0.1 5.5 -0.2 5.5 -0.2 0 -2.2 -1.3 -4.5 -2.8z"/>
  <path d="M959.8 463.2 l-6.8 -3.7 0 -10.5 0 -10.5 38.2 -22 c20.9 -12.1 38.5 -22.1 39 -22.3 l0.8 -0.4 0 7.4 0 7.4 -15.9 9.2 c-8.8 5.1 -16.2 9.2 -16.5 9.2 -0.3 0 -0.6 -1.3 -0.6 -3 l0 -3 -1.2 0 c-0.7 0 -4.2 1.7 -7.8 3.8 l-6.5 3.8 -0.3 4.2 -0.3 4.1 -7.5 4.3 -7.5 4.2 -0.5 2.2 c-0.3 1.2 -0.4 6 -0.2 10.8 0.2 4.7 0.3 8.6 0.3 8.6 0 0 -3 -1.7 -6.7 -3.8z"/>
  <path d="M482.5 462.6 l-11 -3.1 1.5 -0.2 c0.8 -0.2 6.2 1 11.9 2.5 l10.5 2.8 -1 0.5 -0.9 0.5 -11 -3z"/>
  <path d="M0.2 442.4 l0.3 -21.7 98 -56.5 98 -56.6 5 0 5 0 3.5 1.8 c1.9 1 18.2 10.4 36.3 20.9 l32.7 19 0 20.8 c0 11.5 -0.2 20.9 -0.3 20.9 -0.2 0 -15.9 -8.9 -34.8 -19.7 l-34.4 -19.8 -7.5 0 -7.5 0 -89 51.4 c-49 28.3 -92.7 53.6 -97.3 56.2 l-8.2 4.9 0.2 -21.6z"/>
  <path d="M498.7 462.3 c-0.3 -0.5 -1.6 -5 -3 -10 l-2.6 -9.3 44.5 0 44.4 0 0 0.9 c0 1.3 5 7.1 6.1 7.1 1.5 0 1 -1.9 -1.1 -4 -1.1 -1.1 -2 -2.5 -2 -3.1 l0 -1.1 11.8 0.4 11.9 0.3 4.1 2.8 4.2 2.7 2 4 2 3.9 0 3.1 0 3 -60.9 0 -61 0 -0.4 -0.7z"/>
  <path d="M483.7 459 c-5.4 -1.5 -10 -2.9 -10.2 -3.2 -0.2 -0.2 -1.7 -5.2 -3.3 -11.1 l-2.9 -10.7 1 0 c1.9 0 21.7 5.4 21.7 5.9 0 0.3 1.3 5.4 2.9 11.4 l2.9 10.7 -1.2 -0.1 c-0.6 0 -5.5 -1.3 -10.9 -2.9z"/>
  <path d="M1031 459.8 l0 -2.3 5.4 -3.3 c3 -1.7 5.7 -3.2 6 -3.2 0.3 0 0.6 1 0.6 2.3 l0 2.2 -6 3.3 -6 3.3 0 -2.3z"/>
  <path d="M1137 460.5 l0 -1.7 1.1 0.4 c0.6 0.2 1.1 0.8 1.1 1.3 0 0.5 -0.5 1.1 -1.1 1.3 l-1.1 0.4 0 -1.7z"/>
  <path d="M836 453.5 l-2.5 -5.3 5 2.9 c2.7 1.6 5.1 3.2 5.2 3.6 l0.3 0.8 -2.8 1.6 -2.8 1.6 -2.4 -5.2z"/>
  <path d="M847.7 453.4 c-4.3 -2.5 -7.7 -4.7 -7.5 -4.9 0.1 -0.2 30 -17.5 66.3 -38.5 36.3 -21 66.2 -38.3 66.5 -38.5 0.3 -0.2 1.6 0.4 2.9 1.4 l2.3 1.8 -33.8 19.5 -33.9 19.5 -0.5 3.7 -0.5 3.7 -9 5.2 -9 5.2 -0.3 3.5 -0.3 3.5 -16.6 9.5 c-9.2 5.2 -17.1 9.6 -17.7 9.7 l-1.1 0.3 -7.8 -4.6z"/>
  <path d="M947.3 456.3 l-1.3 -0.5 0 -10.7 0 -10.8 38.5 -22.1 c21.1 -12.2 38.7 -22.2 39 -22.2 0.3 0 0.5 1 0.5 2.3 l0 2.3 -37 21.3 -37 21.4 0 9.8 0 9.9 -0.7 -0.1 c-0.5 0 -1.4 -0.3 -2 -0.6z"/>
  <path d="M1020 453 l0 -2 4.1 -2.5 c2.2 -1.5 4.7 -2.9 5.5 -3.2 l1.4 -0.5 0 2.3 0 2.4 -4.9 2.8 c-5.8 3.2 -6.1 3.3 -6.1 0.7z"/>
  <path d="M240.7 451.2 l-3.9 -2.6 0.7 -4.4 c0.4 -2.5 0.9 -5.1 1.2 -6 l0.6 -1.5 -3.9 0.7 c-2.1 0.4 -6.2 0.9 -9 1.3 l-5.1 0.5 -2.7 -1.7 c-1.5 -1 -2.5 -2 -2.2 -2.2 0.4 -0.4 33.9 -6.2 34.3 -5.9 0.2 0.2 -5.4 23.6 -5.8 24 -0.2 0.2 -2.1 -0.8 -4.2 -2.2z"/>
  <path d="M223 447.6 l0 -5.4 5 -1.1 c2.8 -0.6 5.7 -1.1 6.4 -1.1 l1.2 0 -1 5.9 -0.9 5.9 -3.6 0.6 c-2 0.3 -4.4 0.6 -5.3 0.6 l-1.8 0 0 -5.4z"/>
  <path d="M939.8 451.9 l-1.8 -1 0 -10.7 0 -10.7 38.2 -22 c21 -12.1 38.6 -22.2 39.1 -22.4 l0.8 -0.3 -0.3 3.2 -0.3 3.2 -36 20.8 -36 20.8 -0.3 10.1 -0.3 10.1 -0.7 0 c-0.4 0 -1.5 -0.5 -2.4 -1.1z"/>
  <path d="M216.3 450 l-3.3 -2 0 -5.5 0 -5.6 3.1 1.8 c3.8 2.2 4.1 2.9 3.7 8.7 l-0.3 4.6 -3.2 -2z"/>
  <path d="M1127.2 449.8 l-1.2 -1.2 0 -2.6 c0 -1.5 -0.3 -3 -0.7 -3.3 l-0.6 -0.7 -2.4 1.5 -2.3 1.5 0 -2.6 0 -2.6 -2.2 0.6 c-1.3 0.4 -3 0.8 -3.8 0.9 l-1.5 0.2 -0.3 -3.3 -0.3 -3.4 -2.2 0.7 c-1.2 0.4 -3.1 0.7 -4.2 0.8 l-2 0.2 -0.3 -3.3 -0.3 -3.4 -2 0.5 -1.9 0.5 0 -39 0 -38.9 7.5 4.1 7.5 4.2 7.1 -4.1 c3.9 -2.3 7.5 -4.1 8 -4.1 l0.9 0 0 49 0 49 -0.8 0 c-0.4 0 -1.3 -0.5 -2 -1.2z"/>
  <path d="M931.8 447.2 l-2.8 -1.7 0 -10.5 0 -10.5 38.2 -22 c21 -12.1 38.5 -22.1 39 -22.3 l0.8 -0.4 0 3.5 0 3.5 -36 20.7 -35.9 20.8 -0.3 10.3 -0.3 10.3 -2.7 -1.7z"/>
  <path d="M829.9 443.2 c-3.5 -2.1 -7.3 -4.1 -8.4 -4.5 l-1.8 -0.8 0.9 -0.8 c1.3 -1.2 125.6 -72.7 129.8 -74.8 l3.6 -1.7 7.6 4 7.6 4 0.1 0.9 0 1 -65.9 38.2 c-36.2 21.1 -66.1 38.3 -66.4 38.3 -0.3 0 -3.5 -1.7 -7.1 -3.8z"/>
  <path d="M923.2 442.2 l-2.3 -1.8 0.3 -10.4 0.3 -10.4 38.5 -22.2 38.5 -22.3 0.3 2 c0.2 1.1 0.1 2.6 -0.1 3.3 l-0.5 1.3 -36.1 20.8 -36 20.8 -0.3 10.3 -0.3 10.3 -2.3 -1.7z"/>
  <path d="M914.7 437.4 l-2.8 -1.5 0.3 -10.1 0.3 -10.2 38.5 -22.3 c21.2 -12.2 38.8 -22.2 39.3 -22.3 l0.7 0 0 2.8 0 2.7 -33.7 19.4 c-18.6 10.7 -35 20.3 -36.5 21.3 l-2.7 1.9 -0.3 9.9 -0.3 9.8 -2.8 -1.4z"/>
  <path d="M984 432.8 l0 -2.3 6 -3.3 6 -3.3 0 2.5 0 2.5 -5.4 3 c-6.4 3.7 -6.6 3.7 -6.6 0.9z"/>
  <path d="M1072 423 l0 -2.1 2.1 1.2 2.2 1.1 -1.4 0.9 c-0.8 0.5 -1.7 0.9 -2.1 0.9 l-0.8 0 0 -2z"/>
  <path d="M0 416 l0 -2 0.8 0 c0.4 0 1.3 0.4 2.1 0.9 l1.4 0.9 -2.2 1.1 -2.1 1.2 0 -2.1z"/>
  <path d="M3.3 412 l-3.3 -2 0 -20.5 0 -20.5 1 0 1 0 0 1.9 0 1.8 11.6 6.8 11.6 6.7 2.1 -0.6 2 -0.5 6.3 3.7 c3.5 2 6.4 4 6.4 4.4 0 0.5 -34.4 20.8 -35.3 20.8 -0.1 0 -1.7 -0.9 -3.4 -2z"/>
  <path d="M754.5 400 l-7.9 -7.9 0.7 -0.8 0.8 -0.7 7.9 7.9 c4.4 4.4 8 8.3 8 8.7 0 1.9 -2 0.3 -9.5 -7.2z"/>
  <path d="M757.7 397.2 l-7.7 -7.7 1.9 -7 c1.1 -3.9 2.5 -9 3.1 -11.4 l1.2 -4.4 8.2 8.2 8.3 8.2 -1.8 6.7 c-1 3.7 -2.3 8.6 -2.9 11 l-1.1 4.2 -0.7 0 c-0.4 0 -4.2 -3.5 -8.5 -7.8z"/>
  <path d="M1035.7 403.8 l-1.7 -0.9 0 -1.9 0 -1.9 3 1.7 c3.3 1.9 3.7 2.7 1.7 3.5 l-1.3 0.5 -1.7 -1z"/>
  <path d="M39.3 388.1 c-3.4 -2 -6.5 -3.9 -6.8 -4.3 l-0.6 -0.6 9 -5.1 9 -5.2 0.3 -10.4 0.3 -10.3 15.5 9 c8.5 4.9 15.6 9.1 15.8 9.2 0.1 0.2 -7.1 4.5 -16 9.6 -9 5.1 -17.2 9.9 -18.3 10.5 l-2 1.3 -6.2 -3.7z"/>
  <path d="M281 370.2 l0 -20.9 25.8 -14.9 c14.1 -8.1 26.7 -15.4 28 -16.2 l2.2 -1.4 0 21.3 0 21.4 -21.2 12 c-11.6 6.6 -24.2 13.7 -28 15.8 l-6.8 3.9 0 -21z"/>
  <path d="M747.2 386.5 c2.4 -10.2 5.4 -20.5 5.9 -20.5 l0.6 0 -2.9 10.7 c-1.6 5.9 -3.2 11 -3.5 11.3 l-0.6 0.5 0.5 -2z"/>
  <path d="M13.8 376.6 l-8.8 -5.1 0 -11.7 0 -11.7 9.8 5.7 9.7 5.8 0.3 11.2 0.3 11.2 -1.3 -0.1 c-0.7 -0.1 -5.2 -2.4 -10 -5.3z"/>
  <path d="M27 371 l0 -11 3.8 -2.3 c2 -1.3 6.6 -4 10.2 -6 l6.5 -3.6 -0.3 11.8 -0.3 11.7 -9.1 5.2 c-4.9 2.9 -9.4 5.2 -9.9 5.2 l-0.9 0 0 -11z"/>
  <path d="M914 348 l0 -32.1 2.8 1.7 2.9 1.6 3.1 -1.6 3.2 -1.7 0 28.5 0 28.4 -1.2 0.9 c-0.7 0.5 -3.4 2.2 -6 3.7 l-4.8 2.7 0 -32.1z"/>
  <path d="M67.5 359.1 l-17 -9.9 -0.5 -2.3 -0.6 -2.3 -7.8 -4.6 c-4.3 -2.5 -7.8 -5 -7.8 -5.4 0 -0.5 5.8 -4.2 12.9 -8.2 l12.8 -7.4 0.5 9.9 c0.3 5.5 0.7 10.1 1 10.3 1.9 1.6 22.6 13.1 23.5 13.1 0.6 0 5.9 -2.8 11.7 -6.2 l10.7 -6.2 6.5 3.8 c3.6 2 6.6 4 6.6 4.4 0 0.5 -34.7 21 -35.3 20.9 -0.1 0 -7.8 -4.5 -17.2 -9.9z"/>
  <path d="M0 359.6 l0 -6.5 1 -0.6 1 -0.6 0 7 0 7.1 -1 0 -1 0 0 -6.4z"/>
  <path d="M15.7 351.3 l-9.8 -5.6 10.1 -5.9 10 -5.8 10.1 5.9 10.1 5.9 -9.9 5.6 c-5.5 3.1 -10.1 5.6 -10.4 5.6 -0.2 0 -4.8 -2.6 -10.2 -5.7z"/>
  <path d="M1074.5 335.5 l-37 -21.4 -0.3 -21.1 -0.2 -21.1 5.8 3.3 c3.2 1.8 20.3 11.6 38 21.8 l32.2 18.5 0 20.8 0 20.7 -0.7 0 c-0.5 -0.1 -17.4 -9.7 -37.8 -21.5z"/>
  <path d="M1115 336.3 l0 -20.8 31.2 -18 c17.1 -9.9 34.2 -19.7 38 -21.8 l6.8 -3.9 0 21 0 20.9 -37.5 21.7 c-20.6 11.9 -37.7 21.6 -38 21.6 -0.3 0 -0.5 -9.3 -0.5 -20.7z"/>
  <path d="M72.8 343.2 l-9.8 -5.7 0 -11.7 0 -11.6 10 5.6 9.9 5.7 0.1 11.8 c0 6.4 -0.1 11.7 -0.2 11.6 -0.2 0 -4.7 -2.6 -10 -5.7z"/>
  <path d="M86 337.3 l0.1 -11.8 9.9 -5.7 10 -5.6 0 11.7 0 11.6 -5.7 3.2 c-3.2 1.8 -7.7 4.4 -10 5.8 l-4.3 2.6 0 -11.8z"/>
  <path d="M261.4 336.2 l-18.2 -10.7 6.4 -3.7 6.4 -3.7 2.8 0.5 2.7 0.4 11 -6.4 11 -6.3 0.5 -2.2 0.5 -2.2 7.4 -4.3 7.5 -4.3 11.5 6.7 c6.4 3.8 14.6 8.5 18.3 10.7 l6.7 3.9 -27.6 15.9 c-15.2 8.8 -27.9 16.1 -28.2 16.2 -0.4 0 -8.8 -4.7 -18.7 -10.5z"/>
  <path d="M116 342.2 l-6.5 -3.8 -0.3 -12.9 -0.3 -12.9 -1 -1.2 c-0.5 -0.6 -4.6 -3.3 -9.1 -5.9 l-8.1 -4.7 6.8 -3.8 6.7 -3.8 7 4 6.9 4.1 0.9 2.2 0.8 2.2 11.6 6.5 11.6 6.6 1.9 -0.5 1.9 -0.5 6.6 3.8 c3.6 2.1 6.4 4 6.2 4.2 -1.3 1.2 -35 20.2 -36 20.2 -0.6 0 -4 -1.7 -7.6 -3.8z"/>
  <path d="M667 332.9 c-11.1 -3.1 -14.2 -4.1 -13.8 -4.5 0.5 -0.4 19.9 4.4 20.7 5.2 0.7 0.7 -3.3 0.3 -6.9 -0.7z"/>
  <path d="M663.9 328.3 l-9.7 -2.6 -2.9 -11.1 c-1.7 -6.1 -2.9 -11.2 -2.8 -11.4 0.2 -0.2 3.4 0.6 7.2 1.7 3.7 1.1 8.7 2.4 10.9 3 l4.2 1.1 1.1 4.3 c0.6 2.3 1.9 7.2 3 11 l2 6.7 -1.7 -0.1 c-0.9 0 -6 -1.2 -11.3 -2.6z"/>
  <path d="M638.3 325.1 c-12.9 -3.7 -12.8 -4.6 0.1 -1.2 5.9 1.6 11 3.2 11.3 3.5 l0.6 0.6 -1.4 -0.1 c-0.8 -0.1 -5.5 -1.3 -10.6 -2.8z"/>
  <path d="M640 321.7 c-5.8 -1.6 -10.7 -3.1 -10.9 -3.3 -0.4 -0.4 -6.1 -20.4 -6.1 -21.5 l0 -0.7 10.7 2.8 c5.8 1.6 10.9 3.3 11.3 3.7 1 1.1 6.2 20.2 5.8 21.1 l-0.3 0.8 -10.5 -2.9z"/>
  <path d="M156.7 320.6 c-3.2 -1.8 -6.2 -3.7 -6.7 -4.2 l-0.9 -0.9 9 -5 8.9 -5 0 -14.2 0 -14.2 -8.5 -4.8 c-4.7 -2.6 -8.5 -5 -8.5 -5.3 0.1 -0.6 30.9 -18.4 32.7 -18.8 l1.3 -0.3 0 12.3 0 12.3 8 4.5 8 4.5 0 11.6 0 11.7 -2.9 0.5 -2.9 0.6 -15.7 9.1 c-8.6 4.9 -15.7 9 -15.8 9 -0.1 0 -2.8 -1.6 -6 -3.4z"/>
  <path d="M225 314.9 l-15.4 -8.9 -3.3 -0.6 -3.3 -0.6 0 -10.5 0 -10.5 1.5 0.6 c0.8 0.3 2.1 0.8 2.8 1.1 l1.2 0.4 11.5 -6.8 11.5 -6.7 0.3 -8.7 0.3 -8.7 0.7 0 c0.4 0.1 5.1 2.7 10.5 5.8 l9.7 5.7 -0.2 1 -0.1 1 -8.1 4.6 -8.1 4.6 -0.3 13.9 -0.3 14 9.2 5.3 c5 2.9 8.9 5.4 8.7 5.5 -0.2 0.2 -3.2 1.9 -6.8 3.9 l-6.5 3.6 -15.5 -9z"/>
  <path d="M74.3 317.7 c-5.1 -2.8 -9.3 -5.4 -9.3 -5.8 0 -0.4 18.7 -11.4 19.5 -11.4 0.7 0 19.5 11.1 19.5 11.5 0 0.7 -18.4 11 -19.6 11 -0.5 0 -5.1 -2.4 -10.1 -5.3z"/>
  <path d="M611.5 318 l-10 -2.8 2 -0.1 c2 -0.1 20.6 4.7 21.4 5.5 1.1 1 -4.2 0 -13.4 -2.6z"/>
  <path d="M614.1 314.9 c-5.7 -1.5 -10.4 -2.9 -10.6 -3.1 -0.1 -0.2 -1.5 -4.9 -3 -10.5 l-2.8 -10.3 0.6 -0.6 0.6 -0.6 10.3 2.7 c5.7 1.5 10.4 2.8 10.6 3 0.1 0.1 1.4 4.5 2.8 9.6 1.3 5.2 2.7 10.2 3 11.2 l0.5 1.7 -0.8 -0.1 c-0.4 0 -5.5 -1.4 -11.2 -3z"/>
  <path d="M248.8 310 l-9.7 -5.5 -0.1 -5.7 0 -5.8 1.5 0 1.5 0 0 2.6 c0 1.4 0.5 3.4 1 4.5 l1.1 1.9 2.3 0 2.4 0 1.2 -1.5 c0.7 -0.8 1.8 -1.5 2.5 -1.5 l1.3 0 1.2 3 1.3 3 1.4 0.8 1.4 0.8 -0.3 4.5 -0.3 4.5 -9.7 -5.6z"/>
  <path d="M261.9 310.7 l0.3 -5.1 1.5 -2.3 c0.9 -1.3 1.9 -2.3 2.4 -2.3 l0.9 0 0.6 2.5 0.6 2.5 2.3 0 2.3 0 1.1 -1.4 c0.7 -0.8 1.5 -3.1 1.8 -5.1 l0.6 -3.6 1.4 0.5 c0.8 0.4 2.1 0.6 2.9 0.6 l1.5 0 -0.3 3.7 -0.3 3.7 -4.5 2.6 c-2.5 1.4 -7 4 -10 5.7 l-5.5 3.2 0.4 -5.2z"/>
  <path d="M131.8 309.4 l-9.8 -5.5 0 -3.3 0 -3.3 2.4 -1.1 2.4 -1.1 0.6 0.6 c0.3 0.4 0.6 1.9 0.6 3.5 l0 2.8 2.1 2.1 2 2 1.2 -0.4 c0.7 -0.2 1.8 -1.6 2.6 -3.2 l1.4 -2.9 2.3 3 2.4 2.9 0 4.8 c0 2.6 -0.1 4.7 -0.2 4.7 -0.2 0 -4.7 -2.5 -10 -5.6z"/>
  <path d="M145 310.1 l0 -5.1 1 0 1 0 1.7 -3.5 1.6 -3.4 3.3 2 3.3 2 2.1 -1.1 2 -1.1 0.6 -4 0.7 -4 1.1 0.4 1.1 0.4 0.3 5.4 0.3 5.5 -7.8 4.4 c-4.3 2.4 -8.8 5 -10 5.8 l-2.3 1.4 0 -5.1z"/>
  <path d="M902.3 306.2 l-15.3 -8.7 0 -8.3 0 -8.4 4.7 2.6 c2.5 1.5 9.5 5.4 15.4 8.9 l10.9 6.2 0 8.3 c0 4.5 -0.1 8.2 -0.2 8.2 -0.2 0 -7.2 -4 -15.5 -8.8z"/>
  <path d="M921.2 306.8 l0.3 -8.2 15 -8.8 c8.3 -4.8 15.4 -8.7 15.8 -8.8 l0.8 0 -0.3 8.2 -0.3 8.1 -15.3 8.9 c-8.4 4.8 -15.5 8.8 -15.8 8.8 -0.3 0 -0.4 -3.7 -0.2 -8.2z"/>
  <path d="M598.1 306.3 c-1.2 -3.8 -2.4 -8.4 -2.7 -10.2 l-0.7 -3.3 -6.6 6.6 -6.7 6.6 -1.4 0 -1.5 0 8 -8 c4.3 -4.4 8.1 -7.8 8.2 -7.6 0.7 0.7 6.2 22 5.8 22.4 -0.2 0.2 -1.3 -2.7 -2.4 -6.5z"/>
  <path d="M1077 291.9 c-20.1 -11.6 -36.9 -21.4 -37.3 -21.8 l-0.8 -0.8 37.7 -21.7 37.6 -21.8 1.2 1.2 1.1 1.3 -1 0.4 c-0.5 0.2 -3.5 1.9 -6.5 3.7 l-5.5 3.2 -0.3 7.5 -0.3 7.6 2.1 4.8 2 4.8 -7.2 -0.7 -7.3 -0.6 -7.7 4.5 -7.8 4.6 0 7.4 0 7.4 0.9 0.5 c0.5 0.3 14 1.7 30.1 3.2 l29.2 2.5 1.4 -0.5 1.4 -0.5 0 -6.8 0 -6.8 -10 -21.9 c-5.5 -12.1 -9.8 -22.1 -9.7 -22.3 0.2 -0.2 15.8 8.5 34.6 19.4 l34.1 19.7 -0.7 0.7 c-1 0.8 -72.3 42 -73.7 42.5 l-1.1 0.4 -36.5 -21.1z"/>
  <path d="M571.7 295.4 c-1.6 -5.8 -2.6 -10.8 -2.4 -11.1 0.5 -0.4 4.1 12.2 5.3 18.5 1.4 6.8 -0.2 2.7 -2.9 -7.4z"/>
  <path d="M270 302.2 l0 -2.2 -2.5 -1.2 -2.4 -1.1 -1.6 1.3 -1.5 1.2 0 -3.9 0 -3.9 9.8 -5.7 9.7 -5.6 0.3 4.6 c0.2 2.6 0 5.8 -0.3 7.1 l-0.6 2.5 -1.2 -1.2 c-0.6 -0.6 -1.9 -1.1 -2.9 -1.1 l-1.7 0 -1.1 1.9 c-0.5 1.1 -1 2.8 -1 3.8 l0 1.9 -1.5 2 -1.4 1.9 -0.1 -2.3z"/>
  <path d="M131.5 301.9 c-0.4 -0.5 -0.9 -2.5 -1.2 -4.2 l-0.4 -3.2 -1.6 -1.2 -1.6 -1.2 -1.8 0.9 c-1 0.6 -2 1 -2.3 1 l-0.6 0 0 -6.5 c0 -3.6 0.2 -6.5 0.4 -6.5 0.3 0 4.6 2.4 9.8 5.4 l9.3 5.4 0.3 4.3 0.3 4.4 -1.2 -1.2 -1.3 -1.3 -2.3 0 -2.3 0 -1 2.5 c-1 2.7 -1.6 3 -2.5 1.4z"/>
  <path d="M257.5 301.1 c-0.3 -1 -1.4 -2.6 -2.5 -3.6 l-1.9 -1.7 -3.6 2.1 -3.6 2.1 -0.3 -1.3 c-0.2 -0.6 -0.7 -2.5 -1.2 -4.2 l-0.9 -3 -2.3 -1 -2.2 -1 0 -4.2 0 -4.2 10 5.7 10 5.7 0 5.3 c0 5.4 -0.5 6.5 -1.5 3.3z"/>
  <path d="M574.8 293 l-2.6 -10 1.2 0 c0.7 0 3.5 0.6 6.2 1.4 2.7 0.8 6.9 2 9.3 2.6 l4.4 1.2 -7.4 7.4 c-4 4.1 -7.6 7.4 -7.9 7.4 -0.3 0 -1.7 -4.5 -3.2 -10z"/>
  <path d="M145 297 l0 -5.5 9.4 -5.2 c5.2 -2.9 9.7 -5.3 10 -5.3 l0.6 0 0 4 0 4 -1.4 0 c-0.8 0 -2.2 0.7 -3 1.6 l-1.6 1.5 0 2.9 0 2.9 -1 0.6 -1 0.6 -2.2 -1.5 c-1.2 -0.9 -3.1 -1.6 -4 -1.6 l-1.8 0 -2 3.3 -2 3.2 0 -5.5z"/>
  <path d="M284 292 c0 -3.8 0.2 -7 0.5 -7 1.1 0 11.5 6.2 11.5 6.8 0 0.4 -2.7 2.2 -6 4 l-6 3.3 0 -7.1z"/>
  <path d="M632.5 296.3 c-4.9 -1.4 -9.4 -2.9 -9.9 -3.3 -0.9 -0.9 -6.7 -21.3 -6.1 -21.8 0.3 -0.3 11.9 2.6 19.1 4.9 l3.1 1 2.7 10.2 c1.4 5.6 2.6 10.5 2.6 11 0 1 -1.5 0.8 -11.5 -2z"/>
  <path d="M112.2 294.9 l-5.3 -3.1 5.6 -3.4 c3.1 -1.9 5.8 -3.4 6.1 -3.4 0.2 0 0.4 2.9 0.4 6.5 l0 6.5 -0.7 0 c-0.5 0 -3.2 -1.4 -6.1 -3.1z"/>
  <path d="M644.1 288 l-2.4 -9.1 0.6 -0.5 0.5 -0.5 9.2 2.5 c5.1 1.4 9.5 2.8 9.8 3.1 l0.5 0.5 -0.9 0 c-0.5 0 -4.9 -1.1 -9.7 -2.4 l-8.8 -2.4 0.5 1.6 c2.7 9.5 3.8 14.2 3.4 15.2 l-0.3 1.1 -2.4 -9.1z"/>
  <path d="M903.3 287.1 l-15.2 -8.8 10.7 -6.1 10.7 -6.1 0.8 1.8 0.9 1.9 7.1 1.9 7.2 2 3 -2.8 c1.7 -1.6 3.5 -2.9 3.9 -2.9 1.1 0 18.8 10.1 18.4 10.5 -1.2 1.2 -30.3 17.5 -31.2 17.5 -0.6 0 -7.9 -4 -16.3 -8.9z"/>
  <path d="M607.5 289.5 l-8 -2.3 1.8 -0.1 c0.9 -0.1 4.9 0.8 8.7 1.8 l7 2 0 -1.2 c0 -0.7 -0.9 -4.6 -2 -8.6 -1.2 -4 -1.9 -7.8 -1.7 -8.4 l0.3 -1 2.3 8.9 c1.3 4.9 2.6 9.5 2.9 10.2 l0.4 1.2 -1.8 -0.1 c-1.1 -0.1 -5.5 -1.2 -9.9 -2.4z"/>
  <path d="M133.9 284.4 c-5.2 -3 -9.5 -5.7 -9.6 -6.1 l-0.3 -0.8 8.8 -5 c4.8 -2.7 9.2 -5.1 9.9 -5.3 l1.1 -0.3 9.1 5.2 c5 2.8 9.3 5.4 9.5 5.8 l0.4 0.6 -9.8 5.6 -9.7 5.6 -9.4 -5.3z"/>
  <path d="M249.8 284.3 l-9.8 -5.7 10.2 -5.7 10.2 -5.8 5.6 3.1 c3 1.8 7.5 4.4 9.9 5.9 l4.3 2.6 -9.5 5.7 c-5.3 3.1 -10 5.6 -10.4 5.6 -0.4 0 -5.2 -2.6 -10.5 -5.7z"/>
  <path d="M583.5 283 l-10 -2.8 2 -0.1 c2.2 -0.1 19.4 4.5 20.3 5.4 l0.5 0.5 -1.4 -0.1 c-0.8 -0.1 -5.9 -1.4 -11.4 -2.9z"/>
  <path d="M1103.3 283.7 l-23.3 -2.1 0 -5.8 0 -5.7 2.8 0.4 c1.5 0.2 8.8 0.9 16.2 1.5 7.4 0.6 15.3 1.3 17.5 1.5 2.2 0.2 7.7 0.7 12.3 1.1 l8.2 0.7 0 5.3 0 5.4 -5.2 -0.1 c-2.9 -0.1 -15.8 -1.1 -28.5 -2.2z"/>
  <path d="M195.8 276.3 l-9.8 -5.7 0 -11.3 c0 -6.2 0.2 -11.3 0.5 -11.3 0.3 0 4.6 2.3 9.6 5.2 l9.1 5.1 0.4 1.2 c0.3 0.6 0.3 5.9 0.2 11.8 l-0.3 10.6 -9.7 -5.6z"/>
  <path d="M209 270.6 l0 -11.4 7.8 -4.5 c4.2 -2.4 8.7 -4.9 10 -5.6 l2.2 -1.2 0 11.5 0 11.4 -9.6 5.6 c-5.2 3.1 -9.7 5.6 -10 5.6 -0.2 0 -0.4 -5.1 -0.4 -11.4z"/>
  <path d="M651.5 277.6 l-11 -3.1 -2.7 -10 c-1.6 -5.5 -2.7 -10.5 -2.6 -11.1 l0.3 -1.2 10.9 3.2 10.9 3.1 2.9 10.9 c1.5 6 2.7 11 2.6 11.2 -0.2 0.1 -5.2 -1.2 -11.3 -3z"/>
  <path d="M398.5 268 l-7.9 -7.9 0.7 -0.8 0.8 -0.7 7.9 7.9 c4.4 4.4 8 8.3 8 8.7 0 1.9 -2 0.3 -9.5 -7.2z"/>
  <path d="M626.5 271 l-10 -2.8 1.9 -0.1 c1.1 -0.1 5.3 0.8 9.4 2 4 1.1 7.6 1.9 7.8 1.7 0.2 -0.2 -0.6 -3.7 -1.7 -7.6 l-2 -7.3 0.3 -1.5 0.3 -1.5 2.6 10 c1.5 5.6 2.4 10.1 2 10 -0.3 -0.1 -5.1 -1.4 -10.6 -2.9z"/>
  <path d="M401.7 265.3 l-7.7 -7.8 3.2 -11.3 3.1 -11.4 8.2 8.2 8.3 8.2 -2.4 9.2 c-3.3 12.1 -3.4 12.6 -4.2 12.6 -0.4 0 -4.2 -3.5 -8.5 -7.7z"/>
  <path d="M1111 270.4 c-13.5 -1.3 -25.4 -2.3 -26.5 -2.4 l-2 0 5.3 -3.1 5.3 -3.1 11.2 0.9 11.2 1 0.9 -0.8 0.9 -0.8 -5.4 -11.7 c-3 -6.4 -5.5 -12 -5.7 -12.4 l-0.3 -0.8 5.6 -3.2 c3.1 -1.8 5.7 -3.1 5.9 -2.9 0.8 1.1 18.6 41.2 18.4 41.3 -0.2 0.1 -11.3 -0.8 -24.8 -2z"/>
  <path d="M921.5 270.3 c-1.1 -0.3 -3.1 -1 -4.4 -1.5 l-2.4 -0.9 3.7 -3.8 3.8 -3.9 3.6 1 c2.1 0.5 4.3 1.1 5.1 1.4 l1.4 0.5 -3.8 3.9 c-2.2 2.2 -4.2 3.9 -4.5 3.9 -0.3 -0.1 -1.4 -0.4 -2.5 -0.6z"/>
  <path d="M597.5 267 c-5.5 -1.6 -9.3 -2.9 -8.3 -2.9 1.7 -0.1 21 4.8 21.7 5.5 1.1 1 -4.3 0 -13.4 -2.6z"/>
  <path d="M600.6 264.1 l-10 -2.8 -0.8 -1.4 c-1.1 -2 -5.8 -20.2 -5.4 -20.6 0.2 -0.2 5.2 0.8 11.2 2.4 l10.8 2.8 2.2 8.2 c1.2 4.5 2.5 9.5 2.9 11.2 l0.7 3.1 -0.9 -0.1 c-0.4 -0.1 -5.3 -1.3 -10.7 -2.8z"/>
  <path d="M911 261 l-1.3 -5.2 4 -3.9 3.9 -4 1.3 5.2 1.3 5.1 -4 4 -3.9 4 -1.3 -5.2z"/>
  <path d="M583.6 251.9 l-2.9 -10.9 0.5 -0.6 0.6 -0.5 2.7 11.1 c1.5 6.1 2.6 11.3 2.3 11.5 -0.2 0.2 -1.7 -4.5 -3.2 -10.6z"/>
  <path d="M1107.9 255.8 l-2.5 -5.3 0.7 -3 c0.4 -1.6 0.7 -2.7 0.8 -2.4 0 0.4 1.7 4.1 3.6 8.3 l3.4 7.6 -1.7 0 -1.8 0 -2.5 -5.2z"/>
  <path d="M926.1 258.7 l-3.5 -1.2 -1.2 -5 c-0.7 -2.7 -1.2 -5.1 -1 -5.2 0.1 -0.2 2.5 0.4 5.3 1.2 l5.1 1.5 1.1 4.4 c0.6 2.5 1.1 4.7 1.1 5 0 0.9 -3.2 0.6 -6.9 -0.7z"/>
  <path d="M198 251.3 c-5.2 -3 -9.7 -5.6 -9.8 -5.8 -0.4 -0.4 18.3 -11.5 19.3 -11.5 0.4 0 5.2 2.5 10.7 5.6 l9.9 5.7 -4.3 2.4 c-2.4 1.4 -7 4 -10.3 5.8 l-6 3.3 -9.5 -5.5z"/>
  <path d="M391 256.1 c0 -0.7 1.2 -5.8 2.7 -11.3 l2.7 -10.1 0.4 1.1 c0.3 1 -4.6 20.2 -5.4 21.1 -0.2 0.2 -0.4 -0.1 -0.4 -0.8z"/>
  <path d="M113.9 240.4 l-1.2 -1.5 -0.7 -8 -0.7 -8 -1.1 -1.1 -1 -1 -1.8 0.4 -1.9 0.3 -1.1 3.5 -1.1 3.4 -1.2 0.4 -1.1 0.4 0 -12.2 0 -12.1 4.8 2.7 c2.6 1.5 5.1 3.1 5.7 3.6 1.7 1.5 3.6 0.8 12.2 -4.2 4.7 -2.7 8.9 -5 9.3 -5 l0.8 0 -0.5 2.3 c-0.3 1.2 -1 2.7 -1.5 3.4 l-1 1.2 -2.4 -1.1 -2.4 -1.1 -2 1.8 -1.9 1.7 -1 3.2 -0.9 3.1 -0.7 10 c-0.3 5.5 -0.9 11 -1.2 12.2 l-0.5 2.2 -1.3 0.5 -1.4 0.5 -1.2 -1.5z"/>
  <path d="M920.6 215.3 c0.4 -1.6 1 -3.9 1.4 -5.3 l0.6 -2.5 4.8 -1.3 4.8 -1.4 0.6 0.6 0.5 0.6 -1.4 4.7 -1.4 4.6 -4.5 1.3 c-2.5 0.8 -4.8 1.4 -5.3 1.4 l-0.7 0 0.6 -2.7z"/>
  <path d="M913 213.5 l-3.3 -3.4 1.3 -5.6 1.3 -5.6 4 3.9 4 4 -1.3 5.1 -1.2 5.1 -0.7 0 c-0.4 0 -2.2 -1.6 -4.1 -3.5z"/>
  <path d="M75 187 l-37.5 -21.7 -0.3 -20.6 -0.2 -20.7 0.9 0 c1.1 0 72.1 40.7 73.9 42.4 l1.2 1.2 -0.2 20.5 -0.3 20.5 -37.5 -21.6z"/>
  <path d="M115.2 187.3 l0.3 -20.6 76.5 -44.2 76.5 -44.1 0.3 20.5 0.2 20.5 -1.2 1.2 c-1.8 1.6 -150.9 87.4 -151.9 87.4 l-0.9 0 0.2 -20.7z"/>
  <path d="M918.5 201 c-2.2 -2.2 -3.7 -4 -3.5 -4 0.3 0 2.6 -0.7 5.1 -1.4 l4.7 -1.4 3.7 3.8 3.8 3.9 -2.4 0.9 c-1.3 0.5 -3.6 1.2 -5 1.5 l-2.5 0.6 -3.9 -3.9z"/>
  <path d="M716.5 200.6 l-4 -2.4 -2.4 -4.2 -2.3 -4.2 0.4 -5.8 0.4 -5.8 2.8 -3.6 2.7 -3.6 3.9 -2 3.9 -2 41.6 0 41.7 0 -0.4 -1.2 -0.5 -1.3 -38.4 -0.3 -38.4 -0.3 -5.2 1.1 -5.2 1.1 -3.9 2.9 -3.9 2.8 -1.9 4.6 -1.9 4.6 -49.8 0 -49.8 0 -3.7 -1.5 c-4.3 -1.9 -7.9 -5 -9.8 -8.7 l-1.4 -2.7 0 -5.1 0 -5.1 2 -3.9 2 -3.8 2.8 -2.1 2.9 -2 4.4 -1 4.4 -1.1 48.8 0 48.7 0 0 -1 0 -1 -51.2 0 -51.3 0 -4 1.9 -4 1.8 -3.2 3.7 -3.3 3.6 -0.6 2.6 -0.7 2.6 -3.4 -0.5 -3.5 -0.6 -3.4 -2.6 -3.4 -2.6 -2.1 -4.1 -2.1 -4.2 0.4 -4.8 0.5 -4.8 2.7 -4 2.6 -4 4 -2 3.9 -2 51.6 0 51.7 0 -0.4 -1.2 -0.5 -1.3 -48.4 -0.3 -48.4 -0.3 -5.4 1.1 -5.4 1.2 -4.3 4 -4.3 4 -1.1 3.4 -1.2 3.4 -1.1 0 c-0.7 0 -3 -0.9 -5.2 -1.9 l-4 -1.8 -2.3 -2.6 -2.4 -2.5 -1.2 -3.7 -1.3 -3.6 0.8 -5 0.8 -4.9 2.1 -2.9 2 -3 3.6 -2.2 3.6 -2.2 51.9 -0.5 51.9 -0.5 0 -0.8 0 -0.9 -51.2 0 -51.3 0 -4 1.9 -4 1.8 -3.2 3.7 -3.3 3.6 -0.6 2.6 -0.7 2.6 -3.4 -0.5 -3.5 -0.6 -3.5 -2.7 -3.5 -2.7 -1.9 -4.1 -1.9 -4.1 0 -3.3 0 -3.3 1.5 -3.6 c2 -4.8 4.1 -7.1 8.7 -9.4 l3.7 -1.9 89.1 0 89 0 0 23.4 0 23.3 2.3 3.3 c1.2 1.8 3.8 4.6 5.7 6.2 l3.6 2.8 5.9 2.1 6 2.1 7 0.7 7 0.6 7.2 -0.7 7.2 -0.8 5.3 -2 5.4 -2 4.1 -3 4.2 -3.1 2 -4.2 2.1 -4.3 0 -21.8 0 -21.7 2.3 0.6 c1.2 0.4 4 1.8 6.2 3 l4 2.3 4.1 4.4 c2.3 2.4 18.2 20.5 35.3 40.2 l31.1 36 1.6 3.5 1.7 3.6 0.5 4.6 0.4 4.7 -1.6 4.9 -1.6 4.9 -3.1 3.7 -3.1 3.8 -4.9 2.4 -4.8 2.5 -73.3 0 -73.3 0 -4 -2.4z"/>
  <path d="M1041.2 195.3 c-1.3 -0.5 -4.2 -5.4 -4.2 -7.3 l0 -1 1.9 0 2 0 1.5 2.2 c2.6 3.7 1.9 7.2 -1.2 6.1z"/>
  <path d="M1046 191.3 l0 -1.7 -2.2 -2.3 c-1.2 -1.3 -1.9 -2.5 -1.7 -2.8 0.3 -0.3 9.5 -5.6 20.4 -11.9 l19.8 -11.4 4.8 2.6 c2.7 1.5 4.9 2.9 4.9 3.2 0 0.7 -43.8 26 -45 26 l-1 0 0 -1.7z"/>
  <path d="M384 184.1 l0 -6.7 37.1 -21.5 c20.5 -11.8 37.6 -21.6 38.1 -21.7 l0.9 -0.4 -0.3 6.7 -0.3 6.8 -18.5 10.6 c-10.2 5.9 -27.2 15.7 -37.7 21.9 l-19.3 11.1 0 -6.8z"/>
  <path d="M343.5 168.6 l-37 -21.4 -0.3 -6.6 c-0.2 -3.6 -0.1 -6.6 0.2 -6.6 0.3 0 17.4 9.7 38.1 21.7 l37.5 21.6 0 6.4 0 6.3 -0.7 0 c-0.5 0 -17.4 -9.7 -37.8 -21.4z"/>
  <path d="M181.8 183.3 c-0.8 -1 -1.8 -2.9 -2.1 -4.3 l-0.6 -2.5 0.7 -1.1 c0.4 -0.7 3 -2.5 5.8 -4.2 l5.1 -3 -0.4 4.7 -0.5 4.6 -1.7 3.5 -1.6 3.5 -1.6 0.3 -1.5 0.3 -1.6 -1.8z"/>
  <path d="M345.3 153.2 l-37.3 -21.6 0.8 -0.7 c1 -0.9 33.7 -19.8 35.6 -20.5 l1.4 -0.5 -2.5 4.8 -2.5 4.8 0.5 7.1 0.4 7.1 2.3 4.1 2.4 4.2 5 3.5 5.1 3.5 6 2.2 6 2.2 14 0 14 0.1 7 -2.3 7 -2.3 3.9 -2.7 c2.1 -1.5 5.3 -4.4 7 -6.5 l3.1 -3.9 0.3 -8.7 0.4 -8.8 -2.2 -4.2 -2.1 -4.2 2.8 1.5 c4.8 2.4 32.8 18.7 33.6 19.5 l0.8 0.8 -37.6 21.6 c-20.7 11.9 -37.7 21.7 -37.8 21.6 -0.1 0 -17 -9.8 -37.4 -21.7z"/>
  <path d="M994.1 167.4 l-2.1 -2.7 0 -1.8 0 -1.9 2 0 1.9 0 1.6 3.1 1.6 3.1 -0.5 1.4 c-0.8 2.1 -2.2 1.7 -4.5 -1.2z"/>
  <path d="M1085.3 159.9 l-17.3 -10.1 0 -20.9 c0 -11.5 0.2 -20.9 0.5 -20.9 0.3 0 8.4 4.6 18 10.1 l17.5 10.2 0 20.8 0 20.9 -0.7 0 c-0.5 -0.1 -8.6 -4.6 -18 -10.1z"/>
  <path d="M1107 149.1 l0 -20.8 17.2 -9.9 c9.4 -5.5 17.5 -10.1 18 -10.2 l0.8 -0.4 -0.2 21.2 -0.3 21.2 -17 9.9 c-9.3 5.4 -17.3 9.9 -17.7 9.9 l-0.8 0 0 -20.9z"/>
  <path d="M1001 165.6 l0 -1.4 -2.4 -2.9 -2.4 -2.8 20.5 -11.8 20.5 -11.7 4.9 2.7 c2.7 1.6 4.9 3 4.9 3.3 0 0.6 -44.4 26 -45.4 26 -0.3 0 -0.6 -0.6 -0.6 -1.4z"/>
  <path d="M920.3 164.6 c-2.3 -0.6 -4.4 -1.4 -4.7 -1.7 l-0.6 -0.5 3.8 -3.7 3.7 -3.6 4.2 1.2 c2.3 0.7 4.4 1.5 4.7 1.8 l0.6 0.5 -3.8 3.6 -3.7 3.5 -4.2 -1.1z"/>
  <path d="M238.6 163.4 c-0.3 -0.9 -0.6 -2.8 -0.6 -4.3 l0 -2.8 -1.9 -1.7 -2 -1.8 -1.9 0.6 -1.9 0.6 -1.2 2.6 -1.1 2.5 -1 -0.6 -1 -0.6 0 -4.9 0 -4.9 9.3 -5.5 9.2 -5.5 0.3 2 c0.4 2.4 -1.5 22 -2.4 24.2 l-0.6 1.7 -1.3 0 -1.3 0 -0.6 -1.6z"/>
  <path d="M86.5 148.6 c-14.3 -8.3 -29.8 -17.3 -34.5 -20.1 l-8.5 -4.9 1.6 -0.3 1.6 -0.4 14.2 8.2 14.2 8.1 14.7 -8.5 14.7 -8.5 0 -1.3 0 -1.4 -14 -8.2 c-7.7 -4.5 -14.5 -8.2 -15.2 -8.2 -0.7 -0.1 -6.5 3 -13 6.7 -6.5 3.8 -12.7 7.4 -13.9 8 l-2.1 1.1 0 -1.2 0 -1.3 72.3 -41.7 c39.7 -22.9 72.6 -41.8 73.1 -41.9 0.5 -0.2 16 8.4 34.6 19.1 l33.7 19.5 0 0.8 c0 1.6 -2.1 0.7 -14.8 -6.7 -7.1 -4.1 -13.4 -7.5 -13.9 -7.5 -0.5 0 -7.4 3.7 -15.3 8.3 l-14.3 8.2 -0.4 1.1 -0.4 1.1 15 8.7 c8.3 4.7 15.2 8.6 15.4 8.6 0.3 0 6.9 -3.8 14.8 -8.4 l14.4 -8.4 0.8 0.5 0.9 0.5 -1.4 1.3 c-2.3 2.1 -145.9 84.5 -147.1 84.4 -0.7 -0.1 -12.9 -6.9 -27.2 -15.3z m43.4 4.1 c7.9 -4.6 14.4 -8.7 14.5 -9.2 l0.1 -0.9 -15 -8.7 -15 -8.7 -2 1 c-1.1 0.6 -8 4.4 -15.2 8.6 l-13.3 7.6 0 1.1 0 1 14.3 8.2 c7.8 4.5 14.9 8.2 15.7 8.3 l1.6 0 14.3 -8.3z m37.6 -21.7 c7.6 -4.4 14.5 -8.6 15.2 -9.3 l1.4 -1.4 -15 -8.6 c-8.3 -4.8 -15.5 -8.7 -16 -8.7 -0.5 0 -7.3 3.8 -15.2 8.4 l-14.4 8.3 0 1.2 0 1.2 14.5 8.4 c8 4.7 14.8 8.5 15.1 8.5 0.3 0 6.8 -3.6 14.4 -8z m-37.9 -23.2 l14.4 -8.2 0 -1.2 0 -1.2 -15 -8.6 -14.9 -8.6 -15.1 8.6 -15 8.7 0 1.1 0 1.1 14.3 8.2 c7.8 4.5 14.8 8.2 15.6 8.3 0.7 0 7.8 -3.7 15.7 -8.2z m78.2 -0.1 l14.2 -8.2 0.2 -1 0.1 -1 -15 -8.8 -15 -8.8 -15.2 8.8 -15.1 8.7 0.3 1.1 c0.5 1.3 27.8 17.4 29.7 17.5 l1.5 0 14.3 -8.3z m-39.8 -22.1 l14.5 -8.4 0.2 -1.3 0.3 -1.4 -14.5 -8.2 c-7.9 -4.6 -15 -8.3 -15.7 -8.2 -0.7 0 -7.6 3.8 -15.3 8.3 l-14 8.2 0 1.2 0 1.3 14.5 8.4 c8 4.6 14.7 8.5 15 8.5 0.3 0 7 -3.8 15 -8.4z m40.8 -23.5 l14.4 -8.4 -1.4 -1.2 c-0.7 -0.7 -7.7 -5 -15.4 -9.4 l-14.2 -8.2 -14.8 8.6 -14.9 8.5 0 1.2 0 1.2 14 8.3 14 8.3 2 -0.3 c1.1 -0.2 8.5 -4.1 16.3 -8.6z"/>
  <path d="M101.6 151.5 c-7 -4 -12.9 -7.5 -13.2 -7.8 -0.3 -0.2 5.4 -3.9 12.6 -8.1 l13.2 -7.6 12.5 7.3 12.5 7.3 0 0.9 c0 0.4 -5.7 4 -12.5 8 l-12.5 7.3 -12.6 -7.3z"/>
  <path d="M100.5 106 l-12 -7 0.2 -0.7 c0.2 -0.5 5.9 -4.1 12.8 -8 l12.6 -7.3 11.2 6.5 c6.2 3.5 12.1 7 13.1 7.8 l1.9 1.4 -12.5 7.1 -12.5 7.2 -1.4 -0.1 c-0.8 0 -6.8 -3.1 -13.4 -6.9z"/>
  <path d="M179.4 106.3 c-7.1 -4.1 -13 -7.6 -13.2 -7.8 -0.2 -0.1 5.6 -3.7 12.9 -7.9 l13.1 -7.6 12.7 7.3 12.6 7.3 -0.2 0.8 c-0.1 0.5 -5.8 4.1 -12.6 8.1 l-12.5 7.3 -12.8 -7.5z"/>
  <path d="M140.6 84 c-6.5 -3.7 -12.2 -7.2 -12.7 -7.7 l-0.8 -0.8 12.1 -7 c6.7 -3.8 12.7 -7.1 13.4 -7.3 l1.3 -0.3 12.5 7.2 c7 4 12.6 7.5 12.6 7.8 -0.1 0.6 -25.3 15.1 -26.1 15 -0.2 0 -5.7 -3.1 -12.3 -6.9z"/>
  <path d="M911 156 l-1.3 -5.2 4 -3.9 3.9 -4 1.3 5.2 1.3 5.1 -4 4 -3.9 4 -1.3 -5.2z"/>
  <path d="M926 153.6 l-3.4 -1.2 -1.3 -4.9 c-0.6 -2.7 -1.1 -5.1 -0.9 -5.2 0.1 -0.2 2.5 0.4 5.3 1.2 l5.1 1.5 1.1 4.4 c0.6 2.5 1.1 4.7 1.1 5 0 0.9 -3.2 0.5 -7 -0.8z"/>
  <path d="M368.1 149.9 l-7.4 -1.9 -5.1 -2.9 -5.1 -2.8 -2.6 -3.4 c-1.5 -1.9 -3 -4.5 -3.4 -5.9 l-0.7 -2.5 3.8 3.6 3.9 3.7 4.4 2.2 c2.4 1.2 6.4 2.8 9 3.6 l4.6 1.5 10.1 0.6 10.1 0.6 7.4 -1.7 7.4 -1.6 5.1 -2.4 5 -2.3 3.7 -3.3 3.7 -3.2 0 1.4 c0 0.8 -1.1 2.9 -2.5 4.8 l-2.4 3.3 -4.3 2.9 -4.3 2.8 -6.5 2.1 -6.5 2.1 -10 0.3 -10 0.4 -7.4 -2z"/>
  <path d="M1046.8 137.7 l-17.7 -10.2 -0.3 -21.2 -0.3 -21.2 6.6 3.7 c3.6 2 11.8 6.6 18.2 10.2 l11.7 6.5 0 21.3 c0 11.6 -0.1 21.2 -0.2 21.1 -0.2 0 -8.3 -4.6 -18 -10.2z"/>
  <path d="M375.5 142.9 l-7 -0.7 -5.7 -2 -5.6 -2 -4.6 -3.1 -4.6 -3.2 -2 -3.9 -2 -3.9 0 -3.1 0 -3 1 0 1 0 0 2 c0 2.9 2.3 7 5.7 10.2 l2.8 2.7 5.5 2.5 5.5 2.6 5.5 1.1 5.5 1.1 10 -0.5 10 -0.5 6.3 -2.2 6.3 -2.2 5 -4.7 5.1 -4.6 1.3 -5 1.4 -5 0 5.7 0.1 5.8 -3.7 4.1 -3.7 4.1 -4.6 2.3 c-2.5 1.3 -7 3 -10 3.8 l-5.5 1.5 -6 0.4 -6 0.4 -7 -0.7z"/>
  <path d="M750 138 c-6.2 -1.3 -11.8 -3.6 -16.3 -6.8 l-3.9 -2.6 -1.9 -3.7 -1.9 -3.8 0 -30.7 0 -30.7 1.8 1.5 c2.5 2.3 11 6.3 16.7 7.9 l5 1.4 12 0 12 0 7.1 -2.2 7 -2.3 3.8 -2.5 c2 -1.4 3.9 -2.5 4.1 -2.5 0.3 0 0.5 13.7 0.5 30.5 l0 30.6 -1.5 3 -1.6 2.9 -4 3 -4.1 2.9 -5.6 2.1 -5.6 2.1 -9.5 0.4 -9.6 0.4 -4.5 -0.9z"/>
  <path d="M373 136.9 l-5.5 -1 -6 -2.9 c-7.3 -3.5 -8.7 -4.6 -11.4 -9 l-2.1 -3.5 0 -30.7 0 -30.8 4.8 3.1 4.7 3 6.5 2 6.5 2 8.1 0.6 8 0.6 6.8 -1.2 c8.2 -1.4 16.2 -4.3 21 -7.6 l3.6 -2.4 0 31.2 0 31.2 -2.5 3.7 -2.5 3.7 -4.3 2.5 c-2.3 1.3 -6.6 3.1 -9.6 4 l-5.4 1.6 -7.6 0.4 -7.6 0.5 -5.5 -1z"/>
  <path d="M1146 130.3 l0 -5.9 26.3 -15.2 c14.5 -8.4 26.7 -15.2 27 -15.2 l0.7 0 0 5.8 -0.1 5.7 -26.1 15 c-14.4 8.3 -26.6 15.2 -27 15.3 l-0.8 0.4 0 -5.9z"/>
  <path d="M1085.8 114.7 l-17.8 -10.2 0 -20.8 0 -20.9 0.8 0.4 c0.5 0.2 8.6 4.7 18 10.2 l17.2 9.9 0 20.8 c0 11.5 -0.1 20.9 -0.2 20.9 -0.2 0 -8.3 -4.6 -18 -10.3z"/>
  <path d="M1107 104.2 l0 -21 17.2 -9.8 c9.5 -5.5 17.6 -10 18 -10.2 l0.8 -0.4 0 20.9 0 20.8 -13.7 8 c-7.6 4.3 -15.7 9 -18 10.3 l-4.3 2.4 0 -21z"/>
  <path d="M41.3 121.3 l-1.3 -0.5 0 -60.4 0 -60.4 2 0 2 0 0 60.4 0 60.5 -0.7 0.4 c-0.5 0.2 -1.4 0.2 -2 0z"/>
  <path d="M920.7 110.2 c0.3 -1.5 0.9 -3.8 1.3 -5.2 l0.6 -2.5 5 -1.6 c2.7 -0.9 5.1 -1.5 5.3 -1.3 0.5 0.5 -2 10.4 -2.7 10.4 -0.4 0 -2.8 0.7 -5.5 1.5 l-4.7 1.4 0.7 -2.7z"/>
  <path d="M913.6 108.1 l-3.8 -3.9 0.7 -3.3 c0.4 -1.9 1.1 -4 1.5 -4.8 l0.7 -1.4 3.7 3.4 3.8 3.4 -1.4 5.3 -1.3 5.3 -3.9 -4z"/>
  <path d="M1047.3 92.7 c-9 -5.1 -16.3 -9.5 -16.3 -9.8 0 -0.6 32.6 -19.9 33.6 -19.9 0.2 0 0.4 8.8 0.4 19.5 l0 19.5 -0.7 0 c-0.5 -0.1 -8.1 -4.2 -17 -9.3z"/>
  <path d="M921 98.3 c0 -0.5 1.9 -1.8 4.2 -3.1 l4.1 -2.2 2 1.7 1.9 1.8 -3.8 1.2 c-2.2 0.6 -4.9 1.2 -6.1 1.2 l-2.3 0.1 0 -0.7z"/>
  <path d="M901.5 86 l-15 -8.8 -0.3 -8.1 -0.3 -8.1 0.6 0 c0.3 0 7.3 3.9 15.5 8.6 l15 8.6 0 8.4 c0 4.6 -0.1 8.4 -0.2 8.3 -0.2 0 -7 -4 -15.3 -8.9z"/>
  <path d="M920 86.8 l0 -8.3 16 -9.2 16 -9.2 0 8.4 0 8.3 -15.2 8.8 c-8.4 4.8 -15.6 8.9 -16 9.1 l-0.8 0.4 0 -8.3z"/>
  <path d="M227.5 89.1 c-1.6 -1 -7.4 -4.4 -12.9 -7.6 l-9.8 -5.8 8.3 -4.8 c4.6 -2.7 10.7 -6.1 13.5 -7.5 l5 -2.7 12.7 7.3 c7 4 12.7 7.6 12.7 7.9 0 0.6 -25.1 15.1 -26.1 15.1 -0.2 0 -1.7 -0.9 -3.4 -1.9z"/>
  <path d="M1146 78.3 l0 -5.9 26.4 -15.2 c14.5 -8.4 26.7 -15.2 27 -15.2 l0.6 0 0 5.8 -0.1 5.7 -26.1 15 c-14.4 8.3 -26.5 15.2 -27 15.3 l-0.8 0.4 0 -5.9z"/>
  <path d="M1087.5 70.9 c-9.3 -5.5 -17.1 -10.3 -17.2 -10.7 l-0.3 -0.7 17.4 -10 c9.5 -5.4 17.7 -9.9 18.1 -9.9 1.2 0 35.5 19.9 35.5 20.5 0 0.8 -34.8 20.9 -35.8 20.8 -0.4 0 -8.3 -4.6 -17.7 -10z"/>
  <path d="M262.7 75.3 l-0.7 -0.6 0 -37.4 0 -37.3 2 0 2 0 0 38 0 38 -1.3 0 c-0.8 0 -1.7 -0.3 -2 -0.7z"/>
  <path d="M903.3 67.3 c-8.4 -4.9 -15.3 -9 -15.3 -9.3 0 -0.3 4.9 -3.3 10.8 -6.6 l10.7 -6.2 0.3 6.8 0.3 6.8 2 1.8 2.1 1.9 4.8 0 4.7 0 1.6 -1.4 1.7 -1.3 0 -7.4 c0 -4.1 0.2 -7.4 0.4 -7.4 0.4 0 15.7 8.8 20.4 11.7 l2.4 1.5 -14.7 8.4 c-8 4.7 -15.1 8.7 -15.8 9 l-1.2 0.4 -15.2 -8.7z"/>
  <path d="M748.5 67.5 c-0.5 -0.2 -3.5 -1.1 -6.5 -2 l-5.5 -1.7 -4.8 -3 -4.7 -3 -1.9 -2.7 c-1 -1.4 -2.2 -3.7 -2.6 -5.1 l-0.8 -2.5 4.3 3.9 4.3 3.8 5.2 2.4 5.3 2.5 7.9 1.5 7.8 1.6 8.5 -0.6 8.5 -0.6 5.5 -1.6 c3 -0.9 7.6 -2.7 10.2 -4 l4.7 -2.4 3.6 -3.7 3.7 -3.8 -1.6 4 -1.7 4 -2.5 2.6 c-1.4 1.5 -4.7 3.8 -7.3 5.2 l-4.7 2.6 -5.9 1.6 -5.9 1.5 -11.1 -0.1 c-6 0 -11.4 -0.2 -12 -0.4z"/>
  <path d="M367.3 65.5 c-6.1 -1.7 -12.4 -4.8 -17 -8.2 l-3.1 -2.4 -1.6 -3.4 c-2.3 -4.9 -2 -5.3 1.7 -1.9 4.7 4.5 9.3 6.9 17.7 9.5 l7.5 2.3 10.5 0 10.5 -0.1 6.4 -1.7 c8.2 -2.2 13.1 -4.7 18.1 -9.3 l4 -3.5 0 1.3 c0 0.8 -0.9 2.8 -1.9 4.6 l-1.9 3.1 -4.6 3.2 -4.6 3.1 -5.8 2.1 -5.7 2.1 -12.5 0.3 -12.5 0.4 -5.2 -1.5z"/>
  <path d="M747.2 59 c-5.2 -1.1 -14.3 -5.2 -18 -8 -1.5 -1.2 -3.7 -3.8 -4.9 -5.8 l-2.3 -3.7 0 -3.5 0 -3.5 0.9 -1.3 0.8 -1.4 0.6 4.8 0.5 4.8 4.9 4.6 4.8 4.7 5.8 2.1 5.7 2.2 7.2 1.1 7.1 1.1 5.6 -0.7 c3.1 -0.3 7.6 -1.1 10.1 -1.7 l4.5 -1.1 5.7 -2.9 5.6 -3 2.3 -2.4 2.2 -2.3 1.7 -5.2 1.8 -5.1 0.4 3.7 0.4 3.6 -1.7 3.9 -1.7 3.9 -4.9 3.5 -4.8 3.5 -6 2.2 -6 2.1 -12 0.4 -12 0.3 -4.3 -0.9z"/>
  <path d="M914.3 59.3 l-1.3 -0.5 0 -29.4 0 -29.4 6 0 6 0 0 28.8 0 28.8 -1.2 1.2 -1.2 1.2 -3.5 -0.1 c-2 0 -4.2 -0.3 -4.8 -0.6z"/>
  <path d="M369.7 57.9 c-2.6 -0.5 -7.1 -2 -10 -3.3 l-5.3 -2.3 -3.8 -3.3 -3.7 -3.3 -1.5 -2.8 -1.4 -2.8 0 -3.6 0 -3.5 1 0 1 0 0 2 c0 1.2 0.7 3.4 1.4 4.9 l1.5 2.8 3.7 3.3 3.7 3.2 4.1 1.7 c2.3 1 6.5 2.4 9.4 3.1 l5.3 1.2 8.7 0 8.7 -0.1 5.8 -1.5 c3.2 -0.9 7.5 -2.5 9.7 -3.6 l3.9 -2 3.5 -3.5 3.5 -3.4 1.4 -4.8 1.5 -4.8 0.1 4.9 0.1 4.9 -1.9 3.1 c-2.2 3.6 -5.7 6.4 -12 9.5 l-4.3 2.2 -6.7 1.5 -6.6 1.4 -8 -0.1 c-4.4 -0.1 -10.2 -0.5 -12.8 -1z"/>
  <path d="M749 53 l-4.5 -1 -6.2 -3 -6.3 -3.1 -2.7 -3.6 -2.8 -3.6 -0.3 -19.4 -0.3 -19.3 35 0 35.1 0 0 18.8 0 18.7 -1.9 3.1 -1.9 3.2 -3.5 2.6 -3.5 2.7 -5.8 2.1 -5.9 2.1 -10 0.3 -10 0.3 -4.5 -0.9z"/>
  <path d="M370.3 51.6 l-6.3 -1.5 -5.1 -2.8 -5.1 -2.7 -2.7 -3.5 -2.6 -3.4 -0.3 -18.9 -0.3 -18.8 35 0 35.1 0 0 18.3 0 18.2 -2 3.3 -2 3.2 -4.7 3.1 -4.8 3 -5 1.5 -5 1.5 -9 0.4 -9 0.5 -6.2 -1.4z"/>
 </g>
 <g fill="#f8f8f8">
  <path d="M464.5 467 c4.4 -4.4 8.4 -8 9 -8 l1 0 -8 8 c-4.4 4.4 -8.4 8 -9 8 l-1 0 8 -8z"/>
  <path d="M452.1 464.8 c-1.2 -4.5 -2.6 -9.6 -3.2 -11.3 l-0.9 -2.9 7.9 -8 8 -8 0.6 0.6 c0.3 0.3 1.9 5.3 3.4 11.1 l2.9 10.5 -8.3 8.2 -8.2 8.2 -2.2 -8.4z"/>
  <path d="M643.1 457.6 c0.2 -0.2 5.3 -2.2 11.2 -4.5 l10.9 -4 8.1 -4.5 c4.5 -2.4 11.5 -6.8 15.6 -9.7 l7.4 -5.2 7.9 -7.5 7.8 -7.5 0.8 0.8 0.7 0.7 -6.5 5.9 c-3.6 3.3 -10.3 8.9 -14.9 12.4 l-8.4 6.4 -10.6 5.5 c-10.6 5.5 -25.8 11.6 -28.8 11.6 -0.9 0 -1.4 -0.2 -1.2 -0.4z"/>
  <path d="M632 432.6 c0 -0.2 3.3 -1.4 7.3 -2.6 3.9 -1.2 10.5 -3.7 14.6 -5.6 l7.5 -3.4 9.5 -6.4 9.6 -6.4 7.5 -7.4 7.5 -7.4 5.2 -6.9 5.2 -6.9 5 -9.6 5 -9.5 3 -9 3 -9.1 1.6 -9.4 1.5 -9.5 0 -10.5 0 -10.5 -1.4 -8.5 c-0.8 -4.7 -1.7 -9.8 -2.1 -11.5 l-0.8 -3 1.1 1 1 1 1.8 8 1.7 8 0 15 0.1 15 -1.3 6.4 c-0.7 3.5 -2.4 10.2 -3.7 15 l-2.5 8.6 -4.9 10 -4.8 10.1 -6.2 8.4 -6.3 8.5 -7.6 7.5 -7.7 7.5 -7.5 5.1 c-8.8 6.1 -20.6 12.2 -30.7 15.8 -6.6 2.4 -11.2 3.3 -11.2 2.2z"/>
  <path d="M559.5 429.6 c-9.9 -3.7 -17.3 -7.6 -26.9 -14 l-9 -6 -8.6 -8.6 -8.6 -8.5 -5.3 -7.5 c-2.9 -4.1 -7.2 -11.3 -9.6 -16 l-4.3 -8.5 -2.6 -8 c-1.4 -4.4 -3.3 -11.1 -4.1 -15 l-1.6 -7 -0.5 -13 -0.6 -13 1 -4 1 -4 0.1 14.5 0.1 14.5 1.5 8.7 c1.8 10 5.2 20.9 9.5 30.5 l3 6.7 6.5 9.6 6.4 9.7 7.3 7.4 c9.1 9.2 16.7 15.2 28.1 21.7 l8.9 5.1 7.6 2.7 c4.3 1.5 8.1 3.1 8.7 3.6 l0.9 0.8 -1.4 -0.1 c-0.8 0 -4.2 -1 -7.5 -2.3z"/>
  <path d="M479.6 401.1 l-5.7 -8 -5.4 -10.3 -5.4 -10.3 -3.6 -10.9 -3.6 -10.8 -2 -9.9 -1.9 -9.9 -0.6 -11.3 -0.6 -11.2 1.1 -9.9 c2.2 -19.4 6.6 -35.3 14.3 -51.3 l4 -8.4 6.8 -10.2 6.8 -10.2 8.7 -9.3 8.8 -9.3 10.4 -7.8 10.4 -7.8 9.7 -5.1 c5.3 -2.7 13 -6.2 17 -7.6 l7.2 -2.6 0 0.8 c0 0.4 -2.8 1.8 -6.2 3.1 -16.2 6.2 -32.9 16.2 -46 27.5 l-7.8 6.6 -6.6 7.8 c-16.8 19.7 -27.9 42.1 -33.6 68 l-2.2 9.7 0 20 0 20 2.2 10.2 c2.7 12.4 7 25 12.5 36.3 l4.1 8.5 6.1 8.9 c3.3 4.8 6.6 9.7 7.4 10.7 l1.3 1.9 -0.9 0 -1 0 -5.7 -7.9z"/>
  <path d="M728.1 396.6 c0.9 -0.8 20.1 -5.7 20.6 -5.2 0.3 0.2 -1.5 1 -3.8 1.6 -2.4 0.6 -6.6 1.8 -9.3 2.6 -4.7 1.3 -8.4 1.8 -7.5 1z"/>
  <path d="M728 383.4 c1.6 -5.9 3.1 -10.9 3.4 -11.1 0.3 -0.4 21.3 -6.3 22.2 -6.3 0.4 0 -5.9 21.6 -6.4 22.2 -0.7 0.6 -19.3 5.8 -21 5.8 l-1 0 2.8 -10.6z"/>
  <path d="M601 381.4 c0 -0.5 3.4 -4.3 7.5 -8.4 l7.5 -7.4 0 1 c0 0.5 -3.4 4.3 -7.5 8.4 l-7.5 7.4 0 -1z"/>
  <path d="M596.7 373.9 c-2.9 -10 -3.8 -14.1 -3.5 -14.5 0.4 -0.3 18.9 4.3 19.5 4.9 0.1 0.2 -3.1 3.6 -7.1 7.6 l-7.4 7.3 -1.5 -5.3z"/>
  <path d="M557.5 360 c4.4 -4.4 8.4 -8 9 -8 l1 0 -8 8 c-4.4 4.4 -8.4 8 -9 8 l-1 0 8 -8z"/>
  <path d="M544.2 354.8 l-3.1 -11.3 7.9 -8 7.9 -7.9 0.7 0.6 c0.3 0.4 1.9 5.4 3.4 11.1 l2.8 10.4 -8.2 8.2 -8.2 8.2 -3.2 -11.3z"/>
  <path d="M603.5 359 c-5.5 -1.6 -9.3 -2.9 -8.5 -2.9 1.7 -0.1 20.1 4.7 20.9 5.4 0.9 1 -2.7 0.3 -12.4 -2.5z"/>
  <path d="M576 341.5 c4.6 -4.6 8.6 -8.2 8.9 -7.9 0.6 0.6 -15 16.4 -16.4 16.4 l-1 0 8.5 -8.5z"/>
  <path d="M565.8 346.4 c-0.3 -0.5 -1.8 -5.6 -3.3 -11.3 l-2.7 -10.4 7.8 -7.8 c4.3 -4.4 8.1 -7.9 8.4 -7.9 0.3 0 1.8 5 3.4 11.1 l2.9 11.1 -8 8 -8 8 -0.5 -0.8z"/>
  <path d="M749.4 341.3 c0.4 -2.7 1.2 -8.6 1.8 -13.3 l1 -8.5 -0.5 -12.5 -0.6 -12.5 -1.6 -9 -1.6 -9 -3.4 -10.1 -3.4 -10.2 -5 -10 -5 -10 -5.6 -8.2 -5.6 -8.2 1.3 0.4 1.2 0.4 5.3 7.8 c2.8 4.3 7.2 11.8 9.7 16.6 l4.6 8.8 3.4 10.3 c4.4 13.1 6.5 23.4 7.7 37.7 l1 11.4 -1.1 11.4 c-1.1 11.8 -2.7 21.4 -3.7 21.4 l-0.6 0 0.7 -4.7z"/>
  <path d="M537.6 330.2 c-1.4 -5.4 -2.6 -10.5 -2.6 -11.3 l0 -1.4 7.9 -7.9 8 -7.9 1.5 5.6 c0.9 3.2 2.3 8.2 3.2 11.4 l1.5 5.6 -7.8 7.9 c-4.2 4.3 -8 7.8 -8.4 7.8 -0.3 0 -1.8 -4.4 -3.3 -9.8z"/>
  <path d="M594.5 323 c4.4 -4.4 8.4 -8 9 -8 l1 0 -8 8 c-4.4 4.4 -8.4 8 -9 8 l-1 0 8 -8z"/>
  <path d="M581.5 317.6 l-3 -11.6 8 -8 c4.3 -4.4 8.1 -7.8 8.2 -7.6 0.2 0.2 1.7 5.3 3.3 11.2 l3 10.9 -8.3 8.3 -8.3 8.3 -2.9 -11.5z"/>
  <path d="M558.6 320.4 c-0.3 -1.1 -1.7 -6.2 -3.1 -11.4 l-2.5 -9.5 8 -8 7.9 -7.9 0.6 0.5 c0.3 0.4 1.8 5.4 3.3 11.2 l2.7 10.7 -8.1 8.1 -8.2 8.2 -0.6 -1.9z"/>
  <path d="M646.8 297.4 c-0.3 -0.5 -1.5 -4.8 -2.8 -9.7 l-2.3 -8.7 0.6 -0.6 0.5 -0.5 9.2 2.5 c5.1 1.4 9.4 2.7 9.6 2.9 0.2 0.2 -3 3.6 -7 7.6 l-7.4 7.3 -0.4 -0.8z"/>
  <path d="M551 291.8 c-0.7 -2.4 -2 -7.3 -3 -10.9 l-1.8 -6.6 8.3 -8.3 8.3 -8.3 1.2 4.4 c0.6 2.4 2 7.5 3 11.4 l2 7 -7.7 7.7 c-4.3 4.3 -8.1 7.8 -8.5 7.8 l-0.7 0 -1.1 -4.2z"/>
  <path d="M611 290.5 c-2.5 -0.8 -6.5 -1.9 -8.9 -2.5 l-4.4 -1.2 7.4 -7.4 c4 -4.1 7.6 -7.4 8 -7.4 0.3 0 1.6 3.9 2.9 8.8 1.3 4.8 2.5 9.3 2.8 10 l0.4 1.2 -1.8 -0.1 c-1.1 -0.1 -3.9 -0.7 -6.4 -1.4z"/>
  <path d="M583.8 283.1 c-5.3 -1.4 -9.9 -2.9 -10.2 -3.2 l-0.5 -0.5 7.9 -7.9 7.9 -7.9 10.8 2.8 c6 1.5 11 3 11.2 3.2 0.3 0.3 -3.1 4 -7.4 8.4 l-8 8 -1 -0.1 c-0.5 -0.1 -5.4 -1.3 -10.7 -2.8z"/>
  <path d="M570.6 276.9 c-0.3 -0.7 -1.7 -5.8 -3.1 -11.3 l-2.7 -9.9 7.8 -7.8 c4.3 -4.4 8.1 -7.9 8.5 -7.9 l0.7 0 2.7 11.1 2.8 11.1 -8.1 8.1 -8.1 8.1 -0.5 -1.5z"/>
  <path d="M627 271.2 c-5.2 -1.4 -9.7 -2.7 -9.9 -2.9 -0.3 -0.2 2.8 -3.7 6.9 -7.8 l7.4 -7.4 0.5 0.5 c0.3 0.3 1.8 5 3.2 10.5 l2.7 9.9 -0.7 -0.1 c-0.3 0 -4.9 -1.3 -10.1 -2.7z"/>
  <path d="M370.2 265.5 c0.8 -0.9 22.2 -6.4 22.7 -6 0.2 0.3 -0.2 0.7 -1 0.9 -2.7 0.9 -20.7 5.6 -21.5 5.6 l-0.7 0 0.5 -0.5z"/>
  <path d="M369.6 260.8 c0.3 -1.1 1.7 -6.1 3 -11.1 1.4 -5 2.6 -9.2 2.7 -9.3 0.1 -0.2 5.1 -1.6 11 -3.2 l10.7 -2.9 0 1.4 c0 2.3 -5.3 21.3 -5.9 21.3 -0.3 0 -5.5 1.3 -11.4 2.9 l-10.8 2.9 0.7 -2z"/>
  <path d="M705.5 246.3 c-2.1 -3.2 -6.7 -9.2 -10.1 -13.4 l-6.4 -7.5 -6.5 -5.5 c-6 -4.9 -15.3 -11.5 -19.4 -13.9 l-1.6 -0.8 0.6 -0.7 0.6 -0.6 8.9 6 c4.9 3.3 11.7 8.5 15.1 11.6 l6.2 5.6 6 7.5 c6.3 7.8 11.7 16.2 10.9 17 -0.3 0.2 -2.2 -2.2 -4.3 -5.3z"/>
  <path d="M517 223.1 l0 -1.1 7.5 -6 c9.4 -7.4 18.9 -13.1 29.2 -17.5 8.4 -3.5 21.6 -7.5 24.8 -7.5 l1.8 0 -0.5 0.5 c-0.3 0.3 -4.8 1.7 -9.9 3.1 l-9.4 2.5 -11 5.3 -11 5.3 -7 5.1 c-3.8 2.8 -8.7 6.5 -10.7 8.3 l-3.8 3.1 0 -1.1z"/>
 </g>
 <g fill="#ffff00">
  <path d="M467.3 478.1 c-5 -1.4 -9.4 -2.8 -9.7 -3.2 l-0.5 -0.5 7.9 -7.9 7.9 -7.8 11 2.9 11.1 2.9 -8.2 8.2 -8.3 8.3 -1 -0.1 c-0.5 -0.1 -5.1 -1.3 -10.2 -2.8z"/>
  <path d="M733.6 405.1 l-7.8 -7.9 3.3 -1 c1.9 -0.6 6.9 -2 11.3 -3.2 l7.9 -2.2 7.8 7.8 c4.4 4.3 7.9 8.1 7.9 8.5 0 0.6 -18.9 5.9 -21.2 5.9 l-1.3 0 -7.9 -7.9z"/>
  <path d="M609.8 384.2 c-4.9 -1.4 -8.8 -2.8 -8.8 -3.1 0 -0.4 3.5 -4.1 7.8 -8.4 l7.7 -7.7 11.3 3.2 11.4 3.1 -7.8 7.8 -7.9 7.9 -2.5 -0.1 c-1.4 -0.1 -6.4 -1.3 -11.2 -2.7z"/>
  <path d="M560.3 371.1 c-5 -1.4 -9.4 -2.8 -9.7 -3.2 l-0.5 -0.5 7.9 -7.9 7.9 -7.8 11.1 2.8 11.1 2.9 -8.3 8.3 -8.3 8.3 -1 -0.1 c-0.5 -0.1 -5.1 -1.3 -10.2 -2.8z"/>
  <path d="M630.5 366.4 c-4.9 -1.4 -9.6 -2.7 -10.4 -3 l-1.5 -0.5 7.9 -7.9 8 -8 1.2 0 c1.5 0 20.6 5.1 21.2 5.7 0.3 0.2 -3.1 3.9 -7.4 8.3 l-8 8 -1 -0.1 c-0.5 0 -5 -1.2 -10 -2.5z"/>
  <path d="M603.8 359.2 c-5.4 -1.5 -9.8 -2.9 -9.8 -3.2 0 -0.3 3.5 -4.1 7.9 -8.4 l7.8 -7.8 10.4 2.7 c5.7 1.5 10.6 2.9 10.8 3.2 0.3 0.2 -3.1 3.9 -7.4 8.3 l-8 8 -1 -0.1 c-0.5 0 -5.4 -1.3 -10.7 -2.7z"/>
  <path d="M577.7 352.2 l-9.8 -2.6 8.3 -8.3 8.3 -8.3 9.5 2.5 c5.2 1.4 10.1 2.8 10.9 3.1 l1.5 0.5 -7.9 7.9 -8 8 -1.5 -0.1 c-0.8 0 -5.9 -1.2 -11.3 -2.7z"/>
  <path d="M647.3 347.3 c-5.1 -1.4 -9.3 -2.9 -9.3 -3.2 0 -0.4 3.5 -4.2 7.8 -8.4 l7.9 -7.8 5.6 1.5 c3.2 0.9 8.2 2.3 11.4 3.2 l5.6 1.5 -7.9 8 -7.9 7.9 -2 -0.1 c-1.1 0 -6.2 -1.2 -11.2 -2.6z"/>
  <path d="M622.7 340.7 l-10.8 -3 8.2 -8.3 8.2 -8.2 10.4 2.8 c5.7 1.5 10.6 3 10.8 3.2 0.3 0.2 -3.3 4 -7.8 8.4 l-8.2 8.1 -10.8 -3z"/>
  <path d="M602.5 335.3 c-2.7 -0.8 -7.4 -2.1 -10.4 -2.9 l-5.4 -1.5 7.9 -8 7.9 -7.9 1.4 0 c0.8 0 5.9 1.2 11.3 2.7 l9.9 2.6 -8.3 8.4 c-4.5 4.5 -8.5 8.3 -8.8 8.2 -0.3 -0.1 -2.7 -0.8 -5.5 -1.6z"/>
  <path d="M377.9 273.4 l-8.2 -8.2 4.4 -1.2 c2.4 -0.6 7.5 -2 11.4 -3.1 l7 -1.9 8 8 7.9 7.9 -0.6 0.6 c-0.3 0.3 -5.3 1.8 -11.1 3.4 l-10.5 2.8 -8.3 -8.3z"/>
 </g>
</svg>